<svg xmlns="http://www.w3.org/2000/svg" xmlns:xlink="http://www.w3.org/1999/xlink" width="70" zoomAndPan="magnify" viewBox="0 0 52.5 52.499999" height="70" preserveAspectRatio="xMidYMid meet" version="1.0"><defs><clipPath id="c5a20986ad"><path d="M 14.832031 0 L 32.078125 0 L 32.078125 52.003906 L 14.832031 52.003906 Z M 14.832031 0 " clip-rule="nonzero"/></clipPath></defs><g clip-path="url(#c5a20986ad)"><path fill="#fff3f3" d="M 26.597656 30.191406 C 26.515625 30.21875 26.472656 30.234375 26.472656 30.234375 C 26.472656 30.234375 26.613281 30.121094 26.84375 29.929688 C 27.074219 29.738281 27.386719 29.46875 27.726562 29.160156 C 28.066406 28.851562 28.371094 28.554688 28.589844 28.335938 C 28.808594 28.113281 28.945312 27.972656 28.945312 27.972656 C 28.945312 27.972656 28.921875 28.015625 28.886719 28.097656 C 28.847656 28.175781 28.785156 28.289062 28.703125 28.421875 C 28.539062 28.691406 28.277344 29.042969 27.925781 29.367188 C 27.574219 29.6875 27.207031 29.910156 26.929688 30.042969 C 26.792969 30.113281 26.675781 30.160156 26.597656 30.191406 Z M 28.355469 20.933594 C 28.183594 21.183594 28.0625 21.324219 28.0625 21.324219 C 28.0625 21.324219 28.292969 20.636719 28.660156 19.804688 C 29.03125 18.972656 29.398438 18.296875 29.398438 18.296875 C 29.398438 18.296875 29.375 18.488281 29.300781 18.789062 C 29.230469 19.085938 29.109375 19.492188 28.925781 19.910156 C 28.738281 20.332031 28.523438 20.6875 28.355469 20.933594 Z M 22.203125 17.339844 C 22.140625 17.066406 22.074219 16.671875 22.078125 16.226562 C 22.082031 15.78125 22.152344 15.378906 22.226562 15.09375 C 22.261719 14.949219 22.296875 14.835938 22.324219 14.753906 C 22.351562 14.679688 22.363281 14.632812 22.363281 14.632812 C 22.363281 14.632812 22.367188 14.679688 22.367188 14.761719 C 22.367188 14.84375 22.367188 14.964844 22.367188 15.109375 C 22.367188 15.398438 22.363281 15.789062 22.363281 16.21875 C 22.359375 16.644531 22.351562 17.03125 22.34375 17.316406 C 22.339844 17.457031 22.335938 17.574219 22.335938 17.65625 C 22.332031 17.734375 22.332031 17.78125 22.332031 17.78125 C 22.332031 17.78125 22.316406 17.738281 22.292969 17.664062 C 22.265625 17.589844 22.234375 17.480469 22.203125 17.339844 Z M 22.4375 16.878906 C 22.394531 16.507812 22.378906 16.152344 22.378906 15.824219 C 22.382812 15.5 22.402344 15.207031 22.433594 14.960938 C 22.445312 14.835938 22.460938 14.726562 22.476562 14.628906 C 22.492188 14.53125 22.507812 14.445312 22.519531 14.378906 C 22.546875 14.242188 22.5625 14.167969 22.5625 14.167969 C 22.5625 14.167969 22.5625 14.242188 22.566406 14.382812 C 22.5625 14.449219 22.566406 14.535156 22.566406 14.628906 C 22.570312 14.726562 22.570312 14.835938 22.574219 14.960938 C 22.582031 15.203125 22.597656 15.488281 22.617188 15.804688 C 22.644531 16.121094 22.675781 16.464844 22.71875 16.824219 C 22.804688 17.542969 22.917969 18.1875 23.015625 18.652344 C 23.066406 18.886719 23.105469 19.074219 23.136719 19.203125 C 23.167969 19.335938 23.183594 19.40625 23.183594 19.40625 C 23.183594 19.40625 23.152344 19.339844 23.097656 19.222656 C 23.039062 19.101562 22.964844 18.925781 22.882812 18.703125 C 22.71875 18.257812 22.527344 17.617188 22.4375 16.878906 Z M 23.820312 12.109375 C 23.8125 11.789062 23.828125 11.480469 23.851562 11.199219 C 23.875 10.917969 23.910156 10.664062 23.949219 10.453125 C 23.988281 10.242188 24.027344 10.074219 24.054688 9.957031 C 24.085938 9.839844 24.101562 9.773438 24.101562 9.773438 C 24.101562 9.773438 24.097656 10.039062 24.09375 10.460938 C 24.085938 10.882812 24.089844 11.457031 24.105469 12.085938 C 24.121094 12.714844 24.144531 13.28125 24.167969 13.691406 C 24.191406 14.105469 24.207031 14.363281 24.207031 14.363281 C 24.207031 14.363281 24.1875 14.304688 24.15625 14.195312 C 24.121094 14.085938 24.078125 13.925781 24.027344 13.722656 C 23.933594 13.324219 23.835938 12.753906 23.820312 12.109375 Z M 23.28125 17.394531 C 23.179688 16.984375 23.128906 16.722656 23.128906 16.722656 C 23.128906 16.722656 23.246094 16.953125 23.414062 17.339844 C 23.578125 17.726562 23.800781 18.273438 23.925781 18.929688 C 23.988281 19.257812 24.019531 19.578125 24.015625 19.871094 C 24.011719 20.164062 23.980469 20.429688 23.9375 20.648438 C 23.898438 20.863281 23.851562 21.039062 23.816406 21.15625 C 23.78125 21.277344 23.757812 21.339844 23.757812 21.339844 C 23.757812 21.339844 23.765625 21.273438 23.773438 21.148438 C 23.777344 21.027344 23.789062 20.851562 23.796875 20.636719 C 23.8125 20.207031 23.773438 19.625 23.648438 19 C 23.53125 18.375 23.378906 17.808594 23.28125 17.394531 Z M 31.25 8.777344 C 31.136719 9.222656 30.953125 9.59375 30.796875 9.847656 C 30.71875 9.972656 30.648438 10.070312 30.597656 10.136719 C 30.546875 10.199219 30.515625 10.234375 30.515625 10.234375 C 30.515625 10.234375 30.574219 10.066406 30.664062 9.792969 C 30.75 9.523438 30.863281 9.144531 30.972656 8.714844 C 31.082031 8.289062 31.164062 7.890625 31.21875 7.597656 C 31.246094 7.449219 31.265625 7.328125 31.277344 7.246094 C 31.292969 7.164062 31.300781 7.117188 31.300781 7.117188 C 31.300781 7.117188 31.308594 7.164062 31.324219 7.246094 C 31.335938 7.332031 31.351562 7.453125 31.359375 7.605469 C 31.378906 7.90625 31.363281 8.332031 31.25 8.777344 Z M 31.054688 6.125 L 31.078125 6.113281 L 31.359375 5.996094 L 31.429688 5.96875 C 31.4375 5.964844 31.445312 5.960938 31.445312 5.960938 L 31.445312 6.207031 C 31.394531 6.292969 31.332031 6.402344 31.253906 6.527344 C 31.054688 6.859375 30.765625 7.300781 30.425781 7.761719 C 30.089844 8.222656 29.765625 8.617188 29.523438 8.898438 C 29.402344 9.039062 29.300781 9.152344 29.230469 9.230469 C 29.164062 9.304688 29.125 9.347656 29.125 9.347656 C 29.125 9.347656 29.175781 9.316406 29.265625 9.261719 C 29.351562 9.203125 29.476562 9.113281 29.628906 8.996094 C 29.925781 8.761719 30.316406 8.398438 30.664062 7.921875 C 30.847656 7.671875 30.996094 7.421875 31.117188 7.183594 C 31.089844 7.261719 31.058594 7.339844 31.023438 7.421875 C 30.683594 8.269531 30.132812 9.410156 29.351562 10.566406 C 28.960938 11.148438 28.550781 11.667969 28.160156 12.144531 C 27.773438 12.621094 27.429688 13.058594 27.164062 13.449219 C 27.128906 13.5 27.097656 13.550781 27.0625 13.601562 C 27.117188 13.378906 27.171875 13.15625 27.230469 12.933594 C 27.269531 12.871094 27.320312 12.796875 27.378906 12.714844 C 27.535156 12.488281 27.757812 12.199219 28.007812 11.894531 C 28.289062 11.554688 28.546875 11.246094 28.726562 11.019531 C 28.910156 10.792969 29.015625 10.648438 29.015625 10.648438 C 29.015625 10.648438 28.859375 10.742188 28.621094 10.921875 C 28.386719 11.101562 28.070312 11.367188 27.78125 11.722656 C 27.746094 11.765625 27.710938 11.808594 27.679688 11.855469 C 27.808594 11.640625 27.953125 11.402344 28.109375 11.152344 C 28.386719 10.707031 28.636719 10.308594 28.824219 10.019531 C 29.007812 9.734375 29.121094 9.558594 29.121094 9.558594 C 29.121094 9.558594 28.949219 9.691406 28.707031 9.9375 C 28.460938 10.1875 28.144531 10.554688 27.859375 11.011719 C 27.757812 11.179688 27.664062 11.347656 27.585938 11.507812 C 27.671875 11.167969 27.757812 10.824219 27.84375 10.484375 C 27.859375 10.421875 27.875 10.363281 27.886719 10.304688 C 27.886719 10.410156 27.886719 10.46875 27.886719 10.46875 C 27.886719 10.46875 27.902344 10.398438 27.933594 10.269531 C 27.953125 10.179688 27.976562 10.058594 28 9.914062 C 28.039062 9.824219 28.066406 9.742188 28.09375 9.667969 C 28.097656 9.660156 28.105469 9.652344 28.113281 9.640625 C 28.257812 9.464844 28.417969 9.28125 28.59375 9.089844 C 28.945312 8.714844 29.289062 8.40625 29.546875 8.195312 C 29.675781 8.089844 29.78125 8.007812 29.859375 7.953125 C 29.933594 7.894531 29.972656 7.863281 29.972656 7.863281 C 29.972656 7.863281 29.925781 7.882812 29.832031 7.914062 C 29.742188 7.949219 29.617188 8.003906 29.460938 8.082031 C 29.25 8.191406 28.988281 8.351562 28.726562 8.574219 C 28.761719 8.535156 28.792969 8.496094 28.828125 8.457031 C 29.144531 8.085938 29.445312 7.773438 29.671875 7.550781 C 29.785156 7.441406 29.878906 7.351562 29.941406 7.292969 C 30.007812 7.234375 30.042969 7.199219 30.042969 7.199219 C 30.042969 7.199219 29.996094 7.222656 29.914062 7.257812 C 29.832031 7.296875 29.714844 7.359375 29.578125 7.445312 C 29.300781 7.613281 28.933594 7.890625 28.601562 8.277344 C 28.441406 8.46875 28.304688 8.664062 28.191406 8.851562 C 28.28125 8.621094 28.375 8.351562 28.449219 8.054688 C 28.523438 7.777344 28.570312 7.515625 28.605469 7.289062 C 28.828125 6.941406 29.148438 6.5 29.449219 5.984375 C 29.78125 5.421875 29.984375 4.863281 30.046875 4.441406 C 30.082031 4.230469 30.089844 4.0625 30.085938 3.945312 C 30.085938 3.828125 30.078125 3.765625 30.078125 3.765625 C 30.078125 3.765625 30.066406 3.828125 30.042969 3.945312 C 30.019531 4.058594 29.972656 4.222656 29.90625 4.417969 C 29.773438 4.808594 29.515625 5.308594 29.199219 5.851562 C 28.996094 6.191406 28.808594 6.519531 28.65625 6.816406 C 28.667969 6.671875 28.667969 6.574219 28.671875 6.53125 C 28.761719 6.273438 28.859375 5.988281 28.957031 5.675781 C 29.085938 5.253906 29.214844 4.785156 29.296875 4.285156 C 29.464844 3.277344 29.375 2.34375 29.167969 1.71875 C 29.066406 1.40625 28.953125 1.167969 28.863281 1.011719 C 28.820312 0.933594 28.78125 0.875 28.757812 0.835938 C 28.730469 0.792969 28.71875 0.773438 28.71875 0.773438 C 28.71875 0.773438 28.726562 0.796875 28.746094 0.839844 C 28.765625 0.886719 28.796875 0.949219 28.824219 1.035156 C 28.890625 1.207031 28.972656 1.457031 29.035156 1.769531 C 29.167969 2.402344 29.175781 3.292969 29.011719 4.261719 C 28.84375 5.230469 28.589844 6.109375 28.441406 6.753906 C 28.285156 7.398438 28.21875 7.808594 28.21875 7.808594 C 28.21875 7.808594 28.226562 7.792969 28.234375 7.765625 C 28.214844 7.839844 28.191406 7.914062 28.171875 7.992188 C 28.160156 8.035156 28.148438 8.082031 28.140625 8.125 C 28.136719 8.058594 28.136719 7.996094 28.132812 7.929688 C 28.105469 7.230469 28 6.617188 27.894531 6.179688 C 27.84375 5.964844 27.796875 5.789062 27.757812 5.671875 C 27.722656 5.554688 27.703125 5.488281 27.703125 5.488281 C 27.703125 5.488281 27.722656 5.765625 27.757812 6.214844 C 27.789062 6.660156 27.824219 7.277344 27.851562 7.957031 C 27.871094 8.433594 27.878906 8.875 27.886719 9.257812 C 27.8125 9.386719 27.714844 9.640625 27.59375 10.046875 C 27.515625 10.304688 27.4375 10.566406 27.359375 10.828125 C 27.34375 10.859375 27.332031 10.890625 27.316406 10.925781 C 27.351562 10.8125 27.398438 10.65625 27.449219 10.464844 C 27.554688 10.050781 27.664062 9.472656 27.699219 8.835938 C 27.738281 8.199219 27.695312 7.628906 27.640625 7.222656 C 27.613281 7.019531 27.585938 6.855469 27.5625 6.746094 C 27.539062 6.632812 27.527344 6.574219 27.527344 6.574219 C 27.527344 6.574219 27.523438 6.636719 27.519531 6.753906 C 27.515625 6.867188 27.507812 7.035156 27.5 7.238281 C 27.480469 7.648438 27.453125 8.210938 27.414062 8.835938 C 27.378906 9.457031 27.339844 10.027344 27.304688 10.445312 C 27.28125 10.75 27.261719 10.972656 27.253906 11.070312 C 27.222656 11.144531 27.191406 11.21875 27.160156 11.296875 C 27.164062 11.257812 27.167969 11.21875 27.171875 11.179688 C 27.199219 10.800781 27.210938 10.386719 27.203125 9.953125 C 27.183594 9.085938 27.070312 8.320312 26.960938 7.773438 C 26.90625 7.503906 26.855469 7.285156 26.816406 7.136719 C 26.777344 6.988281 26.753906 6.90625 26.753906 6.90625 C 26.753906 6.90625 26.78125 7.25 26.824219 7.808594 C 26.863281 8.363281 26.902344 9.128906 26.917969 9.980469 C 26.925781 10.40625 26.929688 10.816406 26.929688 11.1875 C 26.925781 11.433594 26.925781 11.667969 26.917969 11.878906 C 26.867188 12.011719 26.8125 12.144531 26.761719 12.277344 C 26.769531 12.019531 26.773438 11.714844 26.761719 11.390625 C 26.730469 10.507812 26.601562 9.816406 26.601562 9.816406 C 26.601562 9.816406 26.449219 10.527344 26.476562 11.414062 C 26.496094 11.898438 26.5625 12.335938 26.621094 12.628906 C 26.574219 12.753906 26.527344 12.878906 26.476562 13.003906 C 26.433594 12.542969 26.367188 11.796875 26.289062 10.96875 C 26.164062 9.597656 26.066406 8.523438 26.066406 8.523438 C 26.066406 8.523438 26.019531 8.796875 25.988281 9.246094 C 25.957031 9.695312 25.945312 10.320312 26.007812 11.011719 C 26.070312 11.703125 26.199219 12.324219 26.3125 12.769531 C 26.351562 12.921875 26.386719 13.050781 26.421875 13.160156 C 26.335938 13.378906 26.253906 13.597656 26.175781 13.820312 C 26.15625 13.539062 26.128906 13.226562 26.097656 12.902344 C 25.972656 11.636719 25.789062 10.644531 25.789062 10.644531 C 25.789062 10.644531 25.691406 11.675781 25.816406 12.949219 C 25.863281 13.441406 25.941406 13.894531 26.011719 14.265625 C 25.65625 15.269531 25.3125 16.308594 24.980469 17.367188 C 25.007812 17.160156 25.035156 16.921875 25.058594 16.65625 C 25.160156 15.632812 25.21875 14.203125 25.105469 12.664062 C 25.054688 11.894531 25 11.171875 24.992188 10.519531 C 24.988281 9.867188 25.035156 9.28125 25.128906 8.804688 C 25.203125 8.425781 25.300781 8.117188 25.394531 7.878906 C 25.445312 7.816406 25.496094 7.753906 25.546875 7.691406 C 25.519531 7.796875 25.464844 8.011719 25.40625 8.304688 C 25.324219 8.734375 25.230469 9.328125 25.199219 9.980469 C 25.164062 10.632812 25.191406 11.214844 25.226562 11.632812 C 25.265625 12.050781 25.308594 12.304688 25.308594 12.304688 C 25.308594 12.304688 25.335938 12.042969 25.371094 11.621094 C 25.40625 11.199219 25.449219 10.621094 25.484375 9.980469 C 25.519531 9.335938 25.535156 8.746094 25.550781 8.316406 C 25.558594 7.996094 25.5625 7.765625 25.566406 7.667969 C 25.644531 7.570312 25.722656 7.472656 25.804688 7.375 C 26.191406 6.898438 26.574219 6.410156 26.914062 5.882812 C 27.25 5.359375 27.542969 4.8125 27.824219 4.261719 L 28.042969 3.820312 C 28.035156 4.015625 28.03125 4.230469 28.039062 4.460938 C 28.0625 5.265625 28.1875 5.894531 28.1875 5.894531 C 28.1875 5.894531 28.347656 5.246094 28.324219 4.441406 C 28.3125 4.070312 28.265625 3.726562 28.214844 3.46875 L 28.234375 3.433594 C 28.371094 3.15625 28.507812 2.871094 28.613281 2.5625 C 28.714844 2.253906 28.789062 1.921875 28.78125 1.578125 C 28.777344 1.492188 28.769531 1.40625 28.757812 1.324219 C 28.75 1.28125 28.746094 1.238281 28.734375 1.195312 L 28.722656 1.132812 L 28.71875 1.117188 C 28.71875 1.125 28.71875 1.113281 28.71875 1.113281 L 28.714844 1.097656 C 28.691406 1.015625 28.65625 0.9375 28.613281 0.863281 C 28.585938 0.820312 28.558594 0.78125 28.523438 0.746094 C 28.507812 0.730469 28.488281 0.714844 28.46875 0.699219 C 28.464844 0.695312 28.457031 0.6875 28.457031 0.6875 L 28.476562 0.6875 L 28.511719 0.691406 C 28.605469 0.703125 28.699219 0.71875 28.792969 0.738281 C 28.839844 0.746094 28.886719 0.757812 28.933594 0.769531 L 29.003906 0.785156 L 29.027344 0.792969 C 29.042969 0.816406 29.058594 0.839844 29.078125 0.867188 C 29.195312 1.050781 29.316406 1.324219 29.414062 1.636719 C 29.511719 1.949219 29.578125 2.242188 29.632812 2.457031 C 29.6875 2.671875 29.726562 2.800781 29.726562 2.800781 C 29.726562 2.800781 29.757812 2.660156 29.773438 2.433594 C 29.789062 2.207031 29.789062 1.882812 29.683594 1.539062 C 29.59375 1.257812 29.441406 1.023438 29.285156 0.867188 C 29.378906 0.894531 29.472656 0.925781 29.5625 0.960938 C 29.605469 0.976562 29.644531 0.992188 29.6875 1.007812 C 29.6875 1.015625 29.691406 1.019531 29.691406 1.027344 C 29.734375 1.164062 29.765625 1.328125 29.800781 1.507812 C 29.828125 1.6875 29.851562 1.886719 29.863281 2.09375 C 29.882812 2.507812 29.847656 2.882812 29.804688 3.148438 C 29.78125 3.285156 29.757812 3.394531 29.738281 3.46875 C 29.722656 3.542969 29.710938 3.582031 29.710938 3.582031 C 29.710938 3.582031 29.738281 3.546875 29.78125 3.480469 C 29.824219 3.414062 29.882812 3.3125 29.941406 3.183594 C 30 3.050781 30.058594 2.886719 30.097656 2.695312 C 30.136719 2.507812 30.160156 2.292969 30.148438 2.066406 C 30.132812 1.84375 30.089844 1.628906 30.03125 1.441406 C 29.988281 1.3125 29.941406 1.199219 29.890625 1.09375 C 29.972656 1.132812 30.050781 1.171875 30.128906 1.210938 C 30.148438 1.285156 30.164062 1.363281 30.179688 1.445312 C 30.207031 1.601562 30.234375 1.769531 30.25 1.945312 C 30.285156 2.296875 30.285156 2.613281 30.273438 2.847656 C 30.265625 2.964844 30.257812 3.058594 30.25 3.121094 C 30.246094 3.1875 30.242188 3.222656 30.242188 3.222656 C 30.242188 3.222656 30.261719 3.191406 30.292969 3.132812 C 30.328125 3.074219 30.371094 2.984375 30.414062 2.867188 C 30.5 2.636719 30.574219 2.289062 30.535156 1.90625 C 30.511719 1.714844 30.46875 1.535156 30.410156 1.378906 C 30.410156 1.375 30.410156 1.375 30.410156 1.371094 C 30.417969 1.378906 30.429688 1.382812 30.4375 1.390625 C 30.632812 1.515625 30.816406 1.664062 30.96875 1.832031 C 30.992188 2.089844 31.019531 2.417969 31.003906 2.761719 C 30.984375 3.15625 30.898438 3.5 30.789062 3.730469 C 30.734375 3.847656 30.679688 3.9375 30.640625 3.996094 C 30.597656 4.058594 30.574219 4.089844 30.574219 4.089844 C 30.574219 4.089844 30.613281 4.070312 30.675781 4.027344 C 30.738281 3.984375 30.824219 3.910156 30.914062 3.800781 C 31.09375 3.585938 31.269531 3.207031 31.289062 2.765625 C 31.296875 2.558594 31.277344 2.367188 31.242188 2.195312 C 31.289062 2.273438 31.328125 2.355469 31.367188 2.4375 C 31.390625 2.511719 31.421875 2.582031 31.4375 2.65625 C 31.453125 2.734375 31.480469 2.808594 31.488281 2.886719 C 31.496094 2.964844 31.507812 3.042969 31.507812 3.121094 C 31.511719 3.199219 31.511719 3.277344 31.503906 3.359375 C 31.5 3.4375 31.496094 3.519531 31.480469 3.597656 C 31.464844 3.675781 31.457031 3.761719 31.433594 3.828125 C 31.363281 4.113281 31.167969 4.371094 30.949219 4.621094 C 30.890625 4.683594 30.835938 4.746094 30.777344 4.804688 L 30.535156 5.066406 C 30.449219 5.15625 30.378906 5.242188 30.300781 5.332031 C 30.230469 5.417969 30.160156 5.507812 30.097656 5.59375 C 29.976562 5.765625 29.878906 5.925781 29.792969 6.09375 C 29.699219 6.261719 29.617188 6.445312 29.53125 6.644531 L 29.523438 6.664062 L 29.542969 6.65625 L 29.582031 6.644531 L 29.664062 6.613281 L 29.824219 6.558594 L 30.148438 6.445312 L 30.792969 6.214844 L 30.953125 6.160156 L 31.03125 6.128906 Z M 31.292969 9.375 C 31.25 9.523438 31.195312 9.71875 31.125 9.953125 C 30.964844 10.503906 30.738281 11.261719 30.433594 12.054688 C 30.277344 12.453125 30.113281 12.820312 29.953125 13.148438 C 29.871094 13.308594 29.792969 13.464844 29.710938 13.605469 C 29.632812 13.746094 29.550781 13.871094 29.480469 13.988281 C 29.410156 14.105469 29.335938 14.203125 29.273438 14.292969 C 29.214844 14.386719 29.15625 14.460938 29.109375 14.519531 C 29.019531 14.640625 28.96875 14.710938 28.96875 14.710938 C 28.96875 14.710938 29.03125 14.652344 29.148438 14.546875 C 29.203125 14.496094 29.273438 14.429688 29.347656 14.347656 C 29.425781 14.265625 29.515625 14.175781 29.601562 14.0625 C 29.691406 13.953125 29.789062 13.832031 29.882812 13.695312 C 29.980469 13.5625 30.074219 13.410156 30.171875 13.246094 C 30.316406 13.003906 30.453125 12.734375 30.582031 12.445312 C 30.523438 12.601562 30.46875 12.761719 30.40625 12.925781 C 30.148438 13.597656 29.882812 14.183594 29.679688 14.601562 C 29.578125 14.808594 29.492188 14.976562 29.433594 15.089844 C 29.371094 15.207031 29.339844 15.269531 29.339844 15.269531 C 29.339844 15.269531 29.386719 15.214844 29.472656 15.113281 C 29.554688 15.011719 29.671875 14.859375 29.808594 14.664062 C 30.011719 14.371094 30.253906 13.972656 30.472656 13.496094 C 30.472656 13.5 30.472656 13.503906 30.472656 13.507812 C 30.457031 13.726562 30.421875 14.042969 30.351562 14.429688 C 30.28125 14.8125 30.167969 15.261719 30.015625 15.75 C 29.855469 16.234375 29.65625 16.757812 29.414062 17.289062 C 28.929688 18.351562 28.402344 19.261719 28.027344 19.917969 C 27.652344 20.574219 27.421875 20.976562 27.421875 20.976562 C 27.421875 20.976562 27.714844 20.605469 28.15625 19.980469 C 28.597656 19.355469 29.191406 18.46875 29.683594 17.382812 C 29.722656 17.296875 29.753906 17.214844 29.789062 17.132812 C 29.625 17.742188 29.453125 18.351562 29.273438 18.960938 C 29.082031 19.621094 28.875 20.28125 28.671875 20.941406 L 28.359375 21.925781 L 28.027344 22.960938 L 27.617188 24.28125 L 27.566406 24.441406 L 27.539062 24.523438 L 27.527344 24.566406 L 27.523438 24.574219 C 27.523438 24.578125 27.519531 24.585938 27.523438 24.582031 L 27.542969 24.570312 L 27.832031 24.386719 L 28.398438 24.023438 C 28.589844 23.894531 28.78125 23.761719 28.972656 23.628906 L 29.054688 23.570312 C 28.832031 23.867188 28.554688 24.195312 28.234375 24.53125 C 27.773438 25.015625 27.339844 25.441406 27.050781 25.769531 C 26.757812 26.097656 26.601562 26.3125 26.601562 26.3125 C 26.601562 26.3125 26.8125 26.144531 27.15625 25.867188 C 27.496094 25.589844 27.976562 25.214844 28.449219 24.71875 C 28.910156 24.234375 29.246094 23.707031 29.421875 23.289062 C 29.59375 23.15625 29.761719 23.015625 29.910156 22.855469 C 29.917969 22.84375 29.925781 22.835938 29.933594 22.828125 C 29.789062 23.125 29.574219 23.484375 29.308594 23.84375 C 28.992188 24.273438 28.679688 24.636719 28.457031 24.90625 C 28.230469 25.171875 28.097656 25.339844 28.097656 25.339844 C 28.097656 25.339844 28.28125 25.222656 28.5625 25 C 28.839844 24.78125 29.214844 24.453125 29.542969 24.003906 C 29.726562 23.757812 29.863281 23.503906 29.964844 23.261719 L 29.890625 23.699219 L 29.84375 23.964844 C 29.824219 24.007812 29.804688 24.050781 29.78125 24.09375 C 29.664062 24.34375 29.511719 24.628906 29.339844 24.941406 C 29.160156 25.253906 28.957031 25.585938 28.730469 25.921875 C 28.273438 26.597656 27.8125 27.164062 27.460938 27.554688 C 27.285156 27.75 27.140625 27.90625 27.039062 28.007812 C 26.9375 28.113281 26.882812 28.171875 26.882812 28.171875 C 26.882812 28.171875 26.949219 28.125 27.070312 28.039062 C 27.195312 27.953125 27.367188 27.824219 27.570312 27.648438 C 27.777344 27.472656 28.007812 27.253906 28.253906 26.988281 C 28.492188 26.722656 28.742188 26.414062 28.976562 26.066406 C 29.207031 25.71875 29.402344 25.371094 29.558594 25.042969 C 29.601562 24.945312 29.644531 24.851562 29.683594 24.757812 C 29.679688 24.785156 29.675781 24.816406 29.667969 24.855469 C 29.652344 24.960938 29.609375 25.113281 29.535156 25.289062 C 29.390625 25.640625 29.085938 26.085938 28.765625 26.578125 C 28.441406 27.066406 28.144531 27.492188 27.921875 27.800781 C 27.703125 28.109375 27.566406 28.296875 27.566406 28.296875 C 27.566406 28.296875 27.757812 28.15625 28.039062 27.886719 C 28.316406 27.621094 28.679688 27.222656 29.011719 26.722656 C 29.175781 26.472656 29.316406 26.226562 29.433594 25.992188 C 29.449219 25.957031 29.460938 25.925781 29.476562 25.890625 C 29.414062 26.214844 29.347656 26.535156 29.285156 26.859375 C 29.285156 26.847656 29.285156 26.832031 29.285156 26.820312 C 29.285156 26.746094 29.285156 26.691406 29.277344 26.652344 C 29.273438 26.613281 29.273438 26.59375 29.273438 26.59375 C 29.273438 26.59375 29.269531 26.613281 29.265625 26.652344 C 29.265625 26.691406 29.253906 26.746094 29.242188 26.816406 C 29.210938 26.957031 29.140625 27.152344 29.003906 27.363281 C 28.871094 27.578125 28.667969 27.804688 28.425781 28.035156 C 28.175781 28.261719 27.890625 28.5 27.585938 28.738281 C 26.972656 29.214844 26.398438 29.609375 25.988281 29.898438 C 25.578125 30.1875 25.328125 30.371094 25.328125 30.371094 C 25.328125 30.371094 25.617188 30.246094 26.074219 30.015625 C 26.527344 29.785156 27.148438 29.441406 27.773438 28.953125 C 28.085938 28.707031 28.367188 28.453125 28.605469 28.195312 C 28.839844 27.9375 29.023438 27.671875 29.132812 27.425781 C 29.160156 27.371094 29.183594 27.3125 29.199219 27.257812 C 29.097656 27.746094 28.996094 28.234375 28.890625 28.722656 C 28.78125 28.882812 28.617188 29.085938 28.394531 29.304688 C 28.144531 29.550781 27.816406 29.808594 27.425781 30.058594 C 27.035156 30.3125 26.585938 30.554688 26.101562 30.800781 C 25.617188 31.050781 25.148438 31.289062 24.738281 31.535156 C 24.324219 31.785156 23.96875 32.035156 23.691406 32.277344 C 23.417969 32.519531 23.21875 32.742188 23.09375 32.90625 C 23.027344 32.984375 22.988281 33.050781 22.957031 33.09375 C 22.925781 33.136719 22.910156 33.160156 22.910156 33.160156 C 22.910156 33.160156 22.929688 33.140625 22.964844 33.101562 C 23.003906 33.0625 23.054688 33 23.128906 32.933594 C 23.273438 32.789062 23.496094 32.59375 23.789062 32.386719 C 24.082031 32.175781 24.453125 31.957031 24.871094 31.738281 C 25.292969 31.519531 25.765625 31.296875 26.253906 31.046875 C 26.742188 30.796875 27.195312 30.53125 27.582031 30.246094 C 27.773438 30.109375 27.945312 29.957031 28.105469 29.816406 C 28.257812 29.671875 28.394531 29.527344 28.511719 29.390625 C 28.65625 29.214844 28.769531 29.046875 28.855469 28.90625 C 28.835938 28.984375 28.820312 29.0625 28.804688 29.140625 C 28.796875 29.152344 28.792969 29.164062 28.785156 29.175781 C 28.765625 29.222656 28.738281 29.28125 28.703125 29.347656 C 28.667969 29.414062 28.632812 29.492188 28.585938 29.574219 C 28.5 29.742188 28.386719 29.933594 28.261719 30.140625 C 28.132812 30.347656 27.984375 30.570312 27.820312 30.792969 C 27.492188 31.242188 27.164062 31.613281 26.914062 31.871094 C 26.789062 32 26.683594 32.105469 26.609375 32.171875 C 26.539062 32.242188 26.496094 32.28125 26.496094 32.28125 C 26.496094 32.28125 26.546875 32.253906 26.640625 32.207031 C 26.730469 32.160156 26.859375 32.082031 27.011719 31.976562 C 27.316406 31.765625 27.714844 31.421875 28.058594 30.953125 C 28.085938 30.914062 28.113281 30.875 28.136719 30.835938 C 28.058594 30.996094 27.96875 31.164062 27.867188 31.339844 C 27.636719 31.742188 27.402344 32.085938 27.21875 32.328125 C 27.128906 32.449219 27.054688 32.546875 27 32.613281 C 26.949219 32.679688 26.917969 32.714844 26.917969 32.714844 C 26.917969 32.714844 26.960938 32.6875 27.035156 32.640625 C 27.105469 32.59375 27.210938 32.519531 27.328125 32.417969 C 27.570312 32.21875 27.878906 31.898438 28.121094 31.472656 C 28.363281 31.046875 28.488281 30.609375 28.542969 30.296875 C 28.574219 30.140625 28.601562 30.015625 28.632812 29.929688 C 28.636719 29.914062 28.644531 29.902344 28.648438 29.890625 L 28.617188 30.058594 C 28.574219 30.269531 28.523438 30.476562 28.476562 30.683594 C 28.417969 30.890625 28.367188 31.097656 28.308594 31.304688 C 28.242188 31.507812 28.183594 31.714844 28.113281 31.914062 C 28.09375 31.972656 28.070312 32.03125 28.050781 32.085938 C 27.96875 32.179688 27.867188 32.296875 27.742188 32.4375 C 27.441406 32.777344 27.015625 33.230469 26.542969 33.710938 C 26.066406 34.191406 25.632812 34.609375 25.3125 34.902344 C 24.988281 35.199219 24.792969 35.378906 24.792969 35.378906 C 24.792969 35.378906 24.851562 35.34375 24.960938 35.285156 C 25.070312 35.226562 25.222656 35.132812 25.40625 35.011719 C 25.777344 34.765625 26.273438 34.390625 26.753906 33.902344 C 27.238281 33.414062 27.613281 32.90625 27.855469 32.523438 C 27.886719 32.476562 27.914062 32.433594 27.941406 32.390625 C 27.699219 33.035156 27.425781 33.667969 27.113281 34.28125 C 27.128906 34.222656 27.144531 34.171875 27.152344 34.128906 C 27.171875 34.046875 27.183594 34 27.183594 34 C 27.183594 34 27.082031 34.160156 26.921875 34.410156 C 26.757812 34.65625 26.53125 34.992188 26.273438 35.347656 C 26.019531 35.703125 25.78125 36.015625 25.605469 36.242188 C 25.429688 36.46875 25.320312 36.605469 25.320312 36.605469 C 25.320312 36.605469 25.359375 36.582031 25.429688 36.539062 C 25.5 36.496094 25.597656 36.429688 25.714844 36.335938 C 25.828125 36.25 25.960938 36.132812 26.097656 35.996094 C 25.992188 36.152344 25.882812 36.304688 25.773438 36.457031 L 25.582031 36.714844 L 25.382812 36.964844 C 25.253906 37.132812 25.109375 37.289062 24.972656 37.449219 C 24.691406 37.769531 24.375 38.050781 24.046875 38.324219 C 23.394531 38.867188 22.683594 39.355469 22.101562 40 C 21.871094 40.253906 21.710938 40.515625 21.605469 40.738281 C 21.605469 40.742188 21.601562 40.746094 21.597656 40.75 L 21.628906 40.515625 L 21.640625 40.441406 C 21.730469 40.351562 21.859375 40.226562 22.011719 40.074219 C 22.339844 39.753906 22.785156 39.308594 23.265625 38.816406 C 23.746094 38.328125 24.167969 37.882812 24.472656 37.5625 C 24.777344 37.242188 24.960938 37.042969 24.960938 37.042969 C 24.960938 37.042969 24.730469 37.191406 24.371094 37.464844 C 24.015625 37.734375 23.535156 38.132812 23.050781 38.625 C 22.566406 39.121094 22.171875 39.617188 21.902344 39.984375 C 21.800781 40.121094 21.71875 40.238281 21.652344 40.332031 L 21.703125 39.949219 C 21.730469 39.910156 21.757812 39.871094 21.789062 39.832031 C 21.976562 39.566406 22.246094 39.21875 22.554688 38.851562 C 22.859375 38.484375 23.148438 38.164062 23.359375 37.9375 C 23.578125 37.714844 23.707031 37.574219 23.707031 37.574219 C 23.707031 37.574219 23.664062 37.597656 23.585938 37.640625 C 23.507812 37.679688 23.394531 37.746094 23.261719 37.835938 C 22.996094 38.011719 22.644531 38.292969 22.328125 38.675781 C 22.082031 38.972656 21.894531 39.28125 21.761719 39.546875 L 21.816406 39.191406 C 21.84375 39.023438 21.867188 38.851562 21.894531 38.683594 C 21.992188 38.585938 22.121094 38.480469 22.277344 38.367188 C 22.757812 38.019531 23.441406 37.566406 24.144531 37 C 24.492188 36.71875 24.8125 36.433594 25.082031 36.152344 C 25.351562 35.875 25.570312 35.601562 25.742188 35.367188 C 25.914062 35.128906 26.035156 34.929688 26.113281 34.785156 C 26.1875 34.644531 26.230469 34.566406 26.230469 34.566406 C 26.230469 34.566406 26.171875 34.636719 26.074219 34.765625 C 25.972656 34.894531 25.820312 35.074219 25.625 35.285156 C 25.425781 35.496094 25.183594 35.738281 24.902344 35.992188 C 24.617188 36.246094 24.292969 36.511719 23.949219 36.789062 C 23.257812 37.347656 22.621094 37.855469 22.179688 38.261719 C 22.078125 38.355469 21.988281 38.449219 21.914062 38.535156 C 21.933594 38.417969 21.953125 38.300781 21.96875 38.183594 C 21.96875 38.183594 21.96875 38.183594 21.96875 38.179688 C 22.125 38.03125 22.335938 37.832031 22.5625 37.609375 C 22.785156 37.382812 22.980469 37.175781 23.121094 37.023438 C 23.261719 36.875 23.347656 36.777344 23.347656 36.777344 C 23.347656 36.777344 23.21875 36.816406 23.027344 36.917969 C 22.835938 37.015625 22.585938 37.175781 22.355469 37.410156 C 22.222656 37.542969 22.113281 37.679688 22.023438 37.8125 C 22.035156 37.746094 22.046875 37.679688 22.054688 37.609375 C 22.308594 37.316406 22.644531 36.957031 23.019531 36.585938 C 23.449219 36.160156 23.851562 35.800781 24.152344 35.546875 C 24.300781 35.417969 24.421875 35.320312 24.507812 35.25 C 24.589844 35.179688 24.636719 35.144531 24.636719 35.144531 C 24.636719 35.144531 24.582031 35.167969 24.480469 35.214844 C 24.378906 35.261719 24.234375 35.335938 24.0625 35.433594 C 23.714844 35.632812 23.25 35.953125 22.808594 36.390625 C 22.546875 36.652344 22.324219 36.921875 22.144531 37.175781 C 22.148438 37.15625 22.15625 37.140625 22.164062 37.125 C 22.171875 37.105469 22.183594 37.082031 22.195312 37.058594 C 22.246094 36.964844 22.304688 36.859375 22.378906 36.75 C 22.523438 36.527344 22.726562 36.285156 22.960938 36.023438 C 23.199219 35.757812 23.457031 35.46875 23.726562 35.167969 C 24.261719 34.566406 24.773438 34.066406 25.179688 33.75 C 25.378906 33.589844 25.550781 33.476562 25.671875 33.398438 C 25.792969 33.320312 25.863281 33.28125 25.863281 33.28125 C 25.863281 33.28125 25.785156 33.308594 25.648438 33.359375 C 25.511719 33.414062 25.316406 33.5 25.089844 33.636719 C 24.628906 33.902344 24.046875 34.375 23.503906 34.988281 C 23.230469 35.292969 22.984375 35.59375 22.769531 35.878906 C 22.550781 36.160156 22.371094 36.4375 22.25 36.683594 C 22.21875 36.746094 22.195312 36.804688 22.171875 36.863281 C 22.1875 36.757812 22.203125 36.652344 22.21875 36.546875 L 22.289062 36.132812 C 22.46875 35.867188 22.675781 35.566406 22.902344 35.253906 C 23.246094 34.777344 23.558594 34.355469 23.792969 34.054688 C 24.027344 33.753906 24.167969 33.570312 24.167969 33.570312 C 24.167969 33.570312 23.972656 33.707031 23.683594 33.964844 C 23.390625 34.222656 23.011719 34.609375 22.664062 35.097656 C 22.566406 35.230469 22.480469 35.367188 22.398438 35.496094 L 22.535156 34.703125 C 22.671875 34.558594 22.835938 34.40625 23.027344 34.253906 C 23.289062 34.035156 23.585938 33.808594 23.902344 33.578125 C 24.539062 33.121094 25.125 32.734375 25.546875 32.453125 C 25.96875 32.171875 26.222656 31.992188 26.222656 31.992188 C 26.222656 31.992188 25.929688 32.109375 25.464844 32.332031 C 25.003906 32.558594 24.371094 32.886719 23.722656 33.355469 C 23.398438 33.589844 23.105469 33.839844 22.855469 34.082031 C 22.761719 34.171875 22.675781 34.261719 22.59375 34.351562 L 22.667969 33.914062 L 22.675781 33.886719 C 22.855469 33.71875 23.082031 33.546875 23.339844 33.378906 C 23.722656 33.132812 24.078125 32.910156 24.316406 32.722656 C 24.4375 32.628906 24.53125 32.550781 24.589844 32.492188 C 24.652344 32.433594 24.683594 32.398438 24.683594 32.398438 C 24.683594 32.398438 24.511719 32.480469 24.234375 32.605469 C 23.960938 32.730469 23.574219 32.886719 23.175781 33.144531 C 23.011719 33.25 22.867188 33.371094 22.738281 33.496094 L 22.78125 33.253906 L 22.84375 32.914062 C 22.847656 32.914062 22.847656 32.914062 22.847656 32.910156 C 22.875 32.871094 22.910156 32.820312 22.953125 32.765625 C 22.996094 32.707031 23.042969 32.640625 23.097656 32.574219 C 23.203125 32.433594 23.335938 32.273438 23.484375 32.097656 C 23.636719 31.929688 23.808594 31.746094 23.996094 31.5625 C 24.367188 31.199219 24.726562 30.902344 25 30.703125 C 25.136719 30.601562 25.246094 30.519531 25.324219 30.46875 C 25.402344 30.414062 25.445312 30.386719 25.445312 30.386719 C 25.445312 30.386719 25.394531 30.402344 25.300781 30.429688 C 25.210938 30.460938 25.078125 30.511719 24.917969 30.582031 C 24.601562 30.730469 24.175781 30.984375 23.789062 31.367188 C 23.59375 31.558594 23.429688 31.761719 23.292969 31.953125 C 23.160156 32.152344 23.050781 32.335938 22.972656 32.5 C 22.941406 32.566406 22.914062 32.628906 22.886719 32.6875 L 22.90625 32.597656 L 23 32.09375 C 23.042969 32.019531 23.089844 31.9375 23.144531 31.855469 C 23.308594 31.601562 23.542969 31.328125 23.808594 31.027344 C 24.078125 30.730469 24.382812 30.410156 24.703125 30.085938 C 25.351562 29.4375 25.957031 28.875 26.386719 28.46875 C 26.820312 28.0625 27.078125 27.808594 27.078125 27.808594 C 27.078125 27.808594 26.769531 28.007812 26.285156 28.367188 C 25.804688 28.722656 25.144531 29.238281 24.488281 29.898438 C 24.160156 30.226562 23.867188 30.5625 23.617188 30.886719 C 23.40625 31.152344 23.226562 31.410156 23.089844 31.652344 C 23.09375 31.644531 23.09375 31.636719 23.09375 31.628906 C 23.113281 31.539062 23.164062 31.414062 23.253906 31.273438 C 23.4375 30.988281 23.714844 30.597656 24.011719 30.175781 C 24.3125 29.757812 24.582031 29.382812 24.78125 29.113281 C 24.976562 28.84375 25.101562 28.675781 25.101562 28.675781 C 25.101562 28.675781 24.925781 28.796875 24.667969 29.023438 C 24.414062 29.25 24.078125 29.589844 23.773438 30.019531 C 23.527344 30.371094 23.335938 30.722656 23.203125 31.015625 C 23.257812 30.730469 23.316406 30.441406 23.371094 30.152344 C 23.386719 30.121094 23.402344 30.09375 23.421875 30.0625 C 23.589844 29.785156 23.84375 29.488281 24.140625 29.179688 C 24.441406 28.871094 24.792969 28.554688 25.171875 28.234375 C 25.554688 27.917969 25.914062 27.617188 26.242188 27.347656 C 26.570312 27.070312 26.859375 26.816406 27.089844 26.59375 C 27.324219 26.367188 27.5 26.175781 27.621094 26.042969 C 27.738281 25.90625 27.800781 25.832031 27.800781 25.832031 C 27.800781 25.832031 27.722656 25.894531 27.585938 26.015625 C 27.449219 26.128906 27.242188 26.296875 26.988281 26.492188 C 26.730469 26.6875 26.421875 26.914062 26.078125 27.167969 C 25.734375 27.425781 25.351562 27.707031 24.96875 28.03125 C 24.585938 28.355469 24.238281 28.691406 23.949219 29.027344 C 23.808594 29.199219 23.679688 29.363281 23.566406 29.527344 C 23.527344 29.582031 23.496094 29.636719 23.460938 29.691406 C 23.472656 29.636719 23.484375 29.578125 23.496094 29.523438 C 23.507812 29.496094 23.519531 29.46875 23.535156 29.445312 C 23.570312 29.371094 23.609375 29.292969 23.652344 29.210938 C 23.695312 29.132812 23.742188 29.050781 23.789062 28.964844 C 23.875 28.792969 23.988281 28.617188 24.09375 28.429688 C 24.320312 28.0625 24.582031 27.667969 24.871094 27.269531 C 25.457031 26.472656 26.054688 25.824219 26.507812 25.378906 C 26.617188 25.265625 26.726562 25.171875 26.816406 25.085938 C 26.910156 24.996094 26.988281 24.925781 27.054688 24.867188 C 27.1875 24.75 27.261719 24.683594 27.261719 24.683594 C 27.261719 24.683594 27.179688 24.738281 27.027344 24.832031 C 26.949219 24.882812 26.855469 24.941406 26.753906 25.019531 C 26.652344 25.09375 26.527344 25.179688 26.402344 25.28125 C 26.277344 25.382812 26.136719 25.492188 25.996094 25.621094 C 25.847656 25.746094 25.703125 25.890625 25.546875 26.042969 C 25.246094 26.351562 24.925781 26.710938 24.628906 27.117188 C 24.332031 27.527344 24.082031 27.941406 23.875 28.328125 C 23.789062 28.507812 23.699219 28.675781 23.628906 28.839844 C 23.707031 28.449219 23.785156 28.058594 23.863281 27.667969 C 23.878906 27.648438 23.894531 27.625 23.910156 27.605469 C 24.148438 27.265625 24.484375 26.8125 24.863281 26.332031 C 25.238281 25.847656 25.589844 25.425781 25.847656 25.125 C 26.105469 24.824219 26.265625 24.640625 26.265625 24.640625 C 26.265625 24.640625 26.210938 24.675781 26.121094 24.738281 C 26.027344 24.804688 25.894531 24.902344 25.738281 25.027344 C 25.601562 25.140625 25.445312 25.277344 25.28125 25.4375 C 26.148438 24.378906 26.746094 23.5 26.746094 23.5 C 26.746094 23.5 25.886719 24.261719 24.976562 25.363281 C 24.640625 25.769531 24.34375 26.164062 24.105469 26.5 C 24.164062 26.222656 24.222656 25.949219 24.28125 25.671875 C 24.289062 25.65625 24.296875 25.644531 24.304688 25.628906 C 24.578125 25.183594 25.023438 24.625 25.59375 24.09375 C 26.160156 23.558594 26.71875 23.128906 27.117188 22.816406 C 27.515625 22.503906 27.757812 22.308594 27.757812 22.308594 C 27.757812 22.308594 27.472656 22.445312 27.027344 22.703125 C 26.582031 22.960938 25.972656 23.34375 25.386719 23.898438 C 24.957031 24.300781 24.625 24.746094 24.390625 25.144531 C 24.421875 24.996094 24.457031 24.84375 24.488281 24.695312 C 24.523438 24.648438 24.566406 24.601562 24.613281 24.546875 C 24.808594 24.328125 25.082031 24.035156 25.394531 23.726562 C 25.703125 23.421875 25.988281 23.15625 26.199219 22.96875 C 26.414062 22.78125 26.546875 22.667969 26.546875 22.667969 C 26.546875 22.667969 26.503906 22.683594 26.425781 22.710938 C 26.351562 22.742188 26.242188 22.789062 26.113281 22.855469 C 25.851562 22.988281 25.507812 23.210938 25.183594 23.53125 C 24.910156 23.804688 24.703125 24.101562 24.5625 24.347656 C 24.644531 23.96875 24.726562 23.59375 24.808594 23.21875 C 24.820312 23.203125 24.832031 23.191406 24.847656 23.175781 C 24.992188 23.027344 25.179688 22.867188 25.398438 22.691406 C 25.613281 22.515625 25.851562 22.320312 26.09375 22.113281 C 26.582031 21.695312 26.988281 21.273438 27.242188 20.941406 C 27.371094 20.777344 27.464844 20.640625 27.527344 20.542969 C 27.589844 20.441406 27.621094 20.386719 27.621094 20.386719 C 27.621094 20.386719 27.574219 20.433594 27.492188 20.515625 C 27.40625 20.597656 27.285156 20.714844 27.132812 20.851562 C 26.824219 21.132812 26.382812 21.488281 25.898438 21.902344 C 25.65625 22.113281 25.429688 22.320312 25.230469 22.515625 C 25.097656 22.644531 24.980469 22.773438 24.878906 22.898438 C 24.886719 22.867188 24.894531 22.832031 24.902344 22.800781 C 24.957031 22.730469 25.042969 22.625 25.152344 22.492188 C 25.355469 22.25 25.632812 21.914062 25.9375 21.550781 C 26.238281 21.183594 26.496094 20.847656 26.679688 20.601562 C 26.863281 20.351562 26.96875 20.195312 26.96875 20.195312 C 26.96875 20.195312 26.808594 20.308594 26.570312 20.507812 C 26.332031 20.710938 26.015625 21.003906 25.710938 21.375 C 25.40625 21.746094 25.175781 22.128906 25.03125 22.414062 C 25 22.480469 24.972656 22.542969 24.945312 22.597656 C 25.046875 22.136719 25.152344 21.675781 25.253906 21.21875 C 25.363281 21.019531 25.484375 20.8125 25.617188 20.605469 C 25.945312 20.082031 26.355469 19.546875 26.828125 19.023438 C 27.300781 18.5 27.777344 18.023438 28.183594 17.566406 C 28.59375 17.109375 28.9375 16.675781 29.191406 16.285156 C 29.445312 15.898438 29.605469 15.558594 29.707031 15.320312 C 29.753906 15.203125 29.785156 15.105469 29.808594 15.042969 C 29.832031 14.980469 29.84375 14.945312 29.84375 14.945312 C 29.84375 14.945312 29.828125 14.980469 29.796875 15.039062 C 29.765625 15.101562 29.726562 15.191406 29.664062 15.308594 C 29.539062 15.535156 29.34375 15.855469 29.0625 16.21875 C 28.785156 16.582031 28.414062 16.988281 27.988281 17.421875 C 27.5625 17.859375 27.074219 18.324219 26.59375 18.859375 C 26.128906 19.375 25.738281 19.917969 25.429688 20.445312 C 25.492188 20.175781 25.554688 19.90625 25.617188 19.636719 C 25.695312 19.507812 25.792969 19.371094 25.898438 19.21875 C 26.035156 19.023438 26.191406 18.8125 26.359375 18.597656 C 26.695312 18.164062 27.019531 17.796875 27.257812 17.539062 C 27.378906 17.410156 27.480469 17.304688 27.546875 17.234375 C 27.617188 17.164062 27.652344 17.125 27.652344 17.125 C 27.652344 17.125 27.605469 17.152344 27.515625 17.199219 C 27.429688 17.25 27.304688 17.328125 27.15625 17.4375 C 26.863281 17.648438 26.472656 17.980469 26.128906 18.429688 C 25.996094 18.597656 25.878906 18.773438 25.777344 18.941406 C 25.863281 18.582031 25.949219 18.222656 26.03125 17.859375 C 26.285156 17.695312 26.707031 17.40625 27.148438 17.042969 C 27.851562 16.46875 28.332031 15.9375 28.332031 15.9375 C 28.332031 15.9375 27.660156 16.253906 26.960938 16.828125 C 26.585938 17.132812 26.28125 17.449219 26.074219 17.679688 C 26.09375 17.597656 26.113281 17.519531 26.132812 17.441406 C 26.140625 17.425781 26.148438 17.410156 26.160156 17.394531 C 26.195312 17.339844 26.230469 17.28125 26.269531 17.21875 C 26.34375 17.097656 26.433594 16.972656 26.523438 16.839844 C 26.710938 16.578125 26.925781 16.300781 27.164062 16.019531 C 27.636719 15.457031 28.089844 14.976562 28.414062 14.625 C 28.738281 14.273438 28.933594 14.054688 28.933594 14.054688 C 28.933594 14.054688 28.6875 14.226562 28.308594 14.527344 C 27.929688 14.832031 27.417969 15.269531 26.933594 15.847656 C 26.691406 16.136719 26.484375 16.433594 26.316406 16.71875 C 26.308594 16.730469 26.304688 16.738281 26.296875 16.75 C 26.386719 16.367188 26.480469 15.984375 26.574219 15.601562 C 26.648438 15.519531 26.726562 15.433594 26.8125 15.34375 C 27.003906 15.144531 27.226562 14.9375 27.464844 14.726562 C 27.941406 14.300781 28.359375 13.890625 28.617188 13.554688 C 28.746094 13.390625 28.839844 13.246094 28.898438 13.148438 C 28.960938 13.046875 28.988281 12.992188 28.988281 12.992188 C 28.988281 12.992188 28.945312 13.039062 28.863281 13.125 C 28.78125 13.207031 28.660156 13.328125 28.503906 13.464844 C 28.199219 13.746094 27.742188 14.089844 27.261719 14.523438 C 27.050781 14.714844 26.859375 14.910156 26.695312 15.109375 C 26.722656 14.984375 26.753906 14.863281 26.78125 14.742188 C 26.878906 14.632812 26.996094 14.507812 27.136719 14.363281 C 27.339844 14.15625 27.59375 13.921875 27.878906 13.667969 C 28.164062 13.414062 28.480469 13.140625 28.804688 12.839844 C 29.125 12.539062 29.417969 12.238281 29.660156 11.9375 C 29.902344 11.644531 30.09375 11.355469 30.226562 11.101562 C 30.367188 10.847656 30.453125 10.628906 30.503906 10.480469 C 30.527344 10.402344 30.542969 10.34375 30.554688 10.304688 C 30.566406 10.261719 30.574219 10.242188 30.574219 10.242188 C 30.574219 10.242188 30.5625 10.261719 30.542969 10.300781 C 30.523438 10.335938 30.5 10.394531 30.460938 10.464844 C 30.382812 10.605469 30.265625 10.804688 30.101562 11.035156 C 29.777344 11.5 29.234375 12.054688 28.59375 12.644531 C 28.277344 12.941406 27.96875 13.230469 27.703125 13.503906 C 27.433594 13.777344 27.203125 14.042969 27.023438 14.273438 C 26.953125 14.367188 26.890625 14.453125 26.832031 14.535156 C 26.882812 14.332031 26.933594 14.125 26.984375 13.917969 C 27.074219 13.796875 27.175781 13.664062 27.289062 13.519531 C 27.582031 13.15625 27.953125 12.742188 28.363281 12.28125 C 28.566406 12.046875 28.78125 11.804688 28.992188 11.539062 C 29.199219 11.273438 29.410156 10.996094 29.605469 10.699219 C 30.003906 10.105469 30.324219 9.511719 30.582031 8.957031 C 30.839844 8.402344 31.027344 7.886719 31.164062 7.449219 C 31.296875 7.042969 31.375 6.699219 31.433594 6.457031 C 31.4375 6.441406 31.441406 6.425781 31.445312 6.414062 L 31.449219 6.796875 C 31.429688 7.65625 31.378906 8.515625 31.292969 9.375 Z M 30.515625 13.503906 C 30.515625 13.46875 30.515625 13.4375 30.511719 13.410156 C 30.570312 13.28125 30.625 13.148438 30.675781 13.011719 C 30.746094 12.828125 30.804688 12.644531 30.859375 12.46875 C 30.753906 13.054688 30.636719 13.640625 30.507812 14.226562 C 30.527344 13.925781 30.527344 13.683594 30.515625 13.503906 Z M 29.699219 24.730469 C 29.699219 24.726562 29.699219 24.726562 29.695312 24.722656 C 29.699219 24.714844 29.703125 24.707031 29.707031 24.699219 C 29.707031 24.714844 29.703125 24.726562 29.699219 24.742188 C 29.699219 24.738281 29.699219 24.734375 29.699219 24.730469 Z M 28.660156 29.828125 C 28.65625 29.832031 28.652344 29.835938 28.648438 29.84375 C 28.652344 29.824219 28.660156 29.804688 28.667969 29.785156 Z M 24.027344 26.878906 C 24.148438 26.75 24.28125 26.601562 24.429688 26.4375 C 24.246094 26.699219 24.089844 26.953125 23.964844 27.183594 C 23.984375 27.082031 24.007812 26.980469 24.027344 26.878906 Z M 20.832031 42.070312 C 20.773438 42.5 20.730469 42.933594 20.683594 43.367188 L 20.546875 44.660156 L 20.515625 44.984375 L 20.488281 45.3125 L 20.433594 45.960938 C 20.402344 46.394531 20.359375 46.828125 20.332031 47.261719 L 20.285156 48.042969 C 20.246094 47.851562 20.207031 47.65625 20.164062 47.464844 C 20.117188 47.257812 20.070312 47.050781 20.015625 46.84375 L 19.933594 46.53125 C 19.910156 46.445312 19.914062 46.46875 19.929688 46.328125 C 20.03125 45.492188 20.132812 44.660156 20.234375 43.832031 C 20.421875 42.167969 20.671875 40.523438 20.898438 38.878906 C 21.007812 38.054688 21.148438 37.238281 21.277344 36.421875 C 21.414062 35.605469 21.535156 34.789062 21.679688 33.976562 C 21.976562 32.355469 22.253906 30.730469 22.597656 29.117188 L 22.84375 27.90625 L 22.96875 27.300781 L 23.105469 26.699219 C 23.285156 25.894531 23.46875 25.089844 23.648438 24.285156 C 23.847656 23.484375 24.042969 22.679688 24.242188 21.875 C 24.339844 21.476562 24.449219 21.074219 24.554688 20.675781 C 24.664062 20.273438 24.773438 19.875 24.878906 19.472656 C 25.226562 18.210938 25.59375 16.953125 25.984375 15.691406 C 24.585938 20.960938 23.410156 26.371094 22.417969 31.78125 L 22.179688 33.058594 L 21.964844 34.34375 C 21.824219 35.199219 21.675781 36.050781 21.542969 36.910156 L 21.164062 39.484375 C 21.042969 40.34375 20.941406 41.210938 20.832031 42.070312 Z M 16.640625 34.597656 C 16.429688 33.925781 16.277344 33.230469 16.179688 32.519531 C 16.175781 32.503906 16.175781 32.488281 16.171875 32.472656 C 16.175781 32.476562 16.175781 32.484375 16.175781 32.492188 C 16.277344 32.976562 16.417969 33.425781 16.5625 33.824219 C 16.601562 33.921875 16.640625 34.019531 16.675781 34.109375 C 16.714844 34.203125 16.753906 34.292969 16.792969 34.375 C 16.867188 34.546875 16.949219 34.703125 17.023438 34.84375 C 17.09375 34.984375 17.171875 35.105469 17.230469 35.210938 C 17.292969 35.320312 17.351562 35.410156 17.402344 35.484375 C 17.5 35.628906 17.550781 35.710938 17.550781 35.710938 C 17.550781 35.710938 17.511719 35.621094 17.4375 35.457031 C 17.398438 35.378906 17.355469 35.277344 17.308594 35.164062 C 17.261719 35.046875 17.199219 34.917969 17.144531 34.769531 C 17.089844 34.621094 17.023438 34.460938 16.964844 34.285156 C 16.902344 34.109375 16.84375 33.921875 16.78125 33.722656 C 16.664062 33.324219 16.546875 32.882812 16.449219 32.410156 C 16.355469 31.9375 16.289062 31.480469 16.242188 31.0625 C 16.226562 30.851562 16.203125 30.652344 16.195312 30.464844 C 16.191406 30.375 16.183594 30.285156 16.179688 30.203125 C 16.183594 30.195312 16.183594 30.1875 16.183594 30.179688 L 16.257812 29.914062 C 16.308594 29.734375 16.359375 29.558594 16.414062 29.382812 C 16.503906 29.109375 16.597656 28.839844 16.703125 28.574219 C 16.703125 28.605469 16.703125 28.636719 16.703125 28.671875 C 16.691406 28.703125 16.679688 28.738281 16.667969 28.777344 C 16.648438 28.855469 16.621094 28.941406 16.597656 29.039062 C 16.546875 29.234375 16.507812 29.472656 16.472656 29.738281 C 16.445312 30.003906 16.429688 30.296875 16.445312 30.601562 C 16.46875 31.210938 16.601562 31.742188 16.726562 32.109375 C 16.789062 32.296875 16.847656 32.441406 16.890625 32.539062 C 16.9375 32.636719 16.960938 32.691406 16.960938 32.691406 C 16.960938 32.691406 16.953125 32.628906 16.933594 32.523438 C 16.914062 32.414062 16.890625 32.257812 16.863281 32.066406 C 16.804688 31.683594 16.75 31.15625 16.726562 30.574219 C 16.714844 30.28125 16.710938 30 16.714844 29.742188 C 16.714844 29.628906 16.71875 29.515625 16.722656 29.410156 C 16.726562 29.496094 16.734375 29.578125 16.742188 29.667969 C 16.773438 29.988281 16.824219 30.34375 16.902344 30.707031 C 17.054688 31.433594 17.289062 32.054688 17.480469 32.488281 C 17.578125 32.707031 17.664062 32.878906 17.726562 32.996094 C 17.789062 33.109375 17.824219 33.171875 17.824219 33.171875 C 17.824219 33.171875 17.742188 32.890625 17.613281 32.429688 C 17.484375 31.96875 17.324219 31.335938 17.175781 30.625 C 17.101562 30.273438 17.035156 29.929688 16.976562 29.621094 C 16.925781 29.308594 16.875 29.023438 16.84375 28.78125 C 16.820312 28.648438 16.804688 28.527344 16.789062 28.425781 C 16.792969 28.417969 16.792969 28.414062 16.792969 28.414062 C 16.792969 28.414062 16.789062 28.417969 16.789062 28.417969 C 16.789062 28.402344 16.785156 28.390625 16.785156 28.375 C 16.789062 28.367188 16.789062 28.359375 16.792969 28.351562 L 16.820312 28.289062 L 16.832031 28.261719 L 16.839844 28.253906 C 16.84375 28.25 16.84375 28.25 16.84375 28.25 C 16.851562 28.339844 16.902344 28.765625 16.953125 29.035156 C 17.089844 29.800781 17.308594 30.554688 17.609375 31.277344 L 18.136719 32.546875 L 18.433594 31.488281 C 18.441406 31.523438 18.449219 31.558594 18.460938 31.597656 C 18.5625 31.9375 18.714844 32.210938 18.832031 32.398438 C 18.949219 32.585938 19.035156 32.691406 19.035156 32.691406 C 19.035156 32.691406 19.011719 32.550781 18.960938 32.332031 C 18.90625 32.113281 18.824219 31.820312 18.730469 31.507812 C 18.671875 31.296875 18.617188 31.101562 18.582031 30.925781 C 18.609375 30.816406 18.632812 30.703125 18.65625 30.589844 C 18.710938 30.820312 18.796875 31.011719 18.871094 31.148438 C 18.960938 31.308594 19.03125 31.394531 19.03125 31.394531 C 19.03125 31.394531 19.023438 31.273438 19.003906 31.09375 C 18.984375 30.910156 18.957031 30.671875 18.910156 30.410156 C 18.871094 30.195312 18.824219 29.996094 18.785156 29.832031 C 18.796875 29.726562 18.8125 29.621094 18.824219 29.519531 C 18.878906 28.945312 18.894531 28.375 18.894531 27.8125 C 18.890625 27.355469 18.878906 26.902344 18.863281 26.449219 C 18.941406 26.796875 19.042969 27.195312 19.171875 27.613281 C 19.367188 28.238281 19.582031 28.78125 19.75 29.167969 C 19.917969 29.554688 20.035156 29.785156 20.035156 29.785156 C 20.035156 29.785156 19.980469 29.523438 19.878906 29.109375 C 19.777344 28.699219 19.628906 28.132812 19.4375 27.511719 C 19.25 26.890625 19.050781 26.332031 18.898438 25.925781 C 18.882812 25.875 18.863281 25.824219 18.847656 25.777344 C 18.835938 25.351562 18.828125 24.929688 18.835938 24.507812 C 18.855469 23.425781 18.984375 22.382812 19.316406 21.375 C 19.355469 21.25 19.394531 21.125 19.4375 21.003906 C 19.417969 21.078125 19.402344 21.15625 19.382812 21.238281 C 19.234375 21.871094 19.046875 22.753906 18.980469 23.734375 C 18.945312 24.222656 18.953125 24.691406 18.984375 25.113281 C 19.003906 25.320312 19.023438 25.519531 19.058594 25.703125 C 19.082031 25.890625 19.125 26.058594 19.160156 26.214844 C 19.191406 26.367188 19.238281 26.503906 19.269531 26.621094 C 19.304688 26.742188 19.34375 26.84375 19.375 26.925781 C 19.4375 27.089844 19.46875 27.179688 19.46875 27.179688 C 19.46875 27.179688 19.449219 27.082031 19.414062 26.910156 C 19.40625 26.863281 19.394531 26.816406 19.382812 26.765625 C 19.375 26.710938 19.367188 26.652344 19.355469 26.59375 C 19.339844 26.46875 19.308594 26.328125 19.296875 26.171875 C 19.285156 26.09375 19.277344 26.015625 19.269531 25.929688 C 19.257812 25.84375 19.257812 25.753906 19.25 25.664062 C 19.230469 25.480469 19.230469 25.28125 19.222656 25.078125 C 19.21875 24.664062 19.234375 24.207031 19.265625 23.726562 C 19.332031 22.769531 19.445312 21.894531 19.523438 21.253906 C 19.558594 20.96875 19.585938 20.734375 19.605469 20.558594 C 19.605469 20.554688 19.605469 20.554688 19.605469 20.554688 C 19.597656 20.785156 19.597656 21.085938 19.625 21.410156 C 19.691406 22.128906 19.878906 22.675781 19.878906 22.675781 C 19.878906 22.675781 19.902344 22.527344 19.917969 22.289062 C 19.933594 22.054688 19.941406 21.726562 19.910156 21.371094 C 19.875 21.015625 19.808594 20.695312 19.753906 20.460938 C 19.738281 20.398438 19.722656 20.34375 19.710938 20.296875 C 19.734375 20.238281 19.761719 20.175781 19.785156 20.117188 C 19.792969 20.210938 19.804688 20.324219 19.816406 20.457031 C 19.859375 20.859375 19.9375 21.40625 20.074219 21.996094 C 20.214844 22.585938 20.386719 23.097656 20.523438 23.460938 C 20.660156 23.824219 20.757812 24.039062 20.757812 24.039062 C 20.757812 24.039062 20.726562 23.796875 20.65625 23.410156 C 20.585938 23.027344 20.484375 22.496094 20.347656 21.914062 C 20.210938 21.332031 20.066406 20.808594 19.957031 20.421875 C 19.90625 20.253906 19.863281 20.113281 19.832031 20.007812 C 19.851562 19.96875 19.867188 19.925781 19.886719 19.882812 C 20.097656 19.394531 20.335938 18.914062 20.578125 18.433594 C 20.582031 18.421875 20.589844 18.410156 20.59375 18.398438 C 20.585938 18.453125 20.578125 18.511719 20.574219 18.574219 C 20.546875 18.851562 20.535156 19.230469 20.582031 19.644531 C 20.632812 20.054688 20.734375 20.414062 20.820312 20.664062 C 20.910156 20.914062 20.980469 21.058594 20.980469 21.058594 C 20.980469 21.058594 20.976562 20.890625 20.957031 20.625 C 20.941406 20.359375 20.914062 19.996094 20.863281 19.597656 C 20.816406 19.203125 20.757812 18.839844 20.714844 18.570312 C 20.695312 18.441406 20.675781 18.339844 20.664062 18.261719 C 20.769531 18.050781 20.878906 17.839844 20.984375 17.628906 C 20.96875 17.792969 20.953125 17.980469 20.945312 18.195312 C 20.929688 18.605469 20.945312 19.101562 21.035156 19.644531 C 21.121094 20.1875 21.28125 20.777344 21.53125 21.367188 C 21.78125 21.957031 22.097656 22.46875 22.328125 22.953125 C 22.550781 23.414062 22.683594 23.859375 22.757812 24.25 C 22.675781 24.011719 22.570312 23.761719 22.445312 23.515625 C 22.289062 23.210938 22.128906 22.9375 21.984375 22.6875 C 21.84375 22.441406 21.71875 22.21875 21.625 22.027344 C 21.53125 21.835938 21.464844 21.675781 21.421875 21.566406 C 21.378906 21.453125 21.359375 21.390625 21.359375 21.390625 C 21.359375 21.390625 21.363281 21.460938 21.378906 21.582031 C 21.398438 21.703125 21.433594 21.878906 21.5 22.089844 C 21.5625 22.304688 21.660156 22.550781 21.78125 22.816406 C 21.902344 23.082031 22.050781 23.367188 22.199219 23.660156 C 22.351562 23.957031 22.484375 24.238281 22.589844 24.507812 C 22.691406 24.773438 22.765625 25.023438 22.804688 25.238281 C 22.816406 25.300781 22.824219 25.355469 22.832031 25.410156 C 22.792969 25.582031 22.75 25.75 22.714844 25.921875 C 22.707031 25.804688 22.699219 25.683594 22.679688 25.558594 C 22.625 25.167969 22.507812 24.832031 22.40625 24.601562 C 22.355469 24.484375 22.3125 24.394531 22.277344 24.332031 C 22.242188 24.273438 22.222656 24.238281 22.222656 24.238281 C 22.222656 24.238281 22.226562 24.277344 22.234375 24.351562 C 22.246094 24.421875 22.257812 24.523438 22.273438 24.648438 C 22.304688 24.894531 22.351562 25.234375 22.402344 25.609375 C 22.457031 25.980469 22.503906 26.324219 22.542969 26.574219 C 22.546875 26.597656 22.546875 26.621094 22.550781 26.644531 C 22.519531 26.789062 22.488281 26.933594 22.457031 27.074219 C 22.421875 26.902344 22.375 26.65625 22.3125 26.355469 C 22.179688 25.746094 21.988281 24.902344 21.703125 24.007812 C 21.414062 23.113281 21.078125 22.34375 20.796875 21.808594 C 20.65625 21.539062 20.539062 21.328125 20.449219 21.1875 C 20.359375 21.042969 20.3125 20.964844 20.3125 20.964844 C 20.3125 20.964844 20.347656 21.054688 20.410156 21.210938 C 20.476562 21.367188 20.566406 21.597656 20.671875 21.878906 C 20.886719 22.445312 21.15625 23.234375 21.4375 24.121094 C 21.722656 25.007812 21.980469 25.816406 22.175781 26.402344 C 22.289062 26.738281 22.378906 26.996094 22.4375 27.160156 C 22.433594 27.179688 22.429688 27.195312 22.425781 27.210938 C 22.300781 26.847656 22.082031 26.371094 21.820312 25.875 C 21.554688 25.371094 21.316406 24.933594 21.167969 24.605469 C 21.089844 24.441406 21.035156 24.304688 20.996094 24.210938 C 20.960938 24.117188 20.941406 24.066406 20.941406 24.066406 C 20.941406 24.066406 20.945312 24.121094 20.957031 24.226562 C 20.96875 24.328125 20.992188 24.480469 21.035156 24.664062 C 21.121094 25.027344 21.308594 25.519531 21.574219 26.023438 C 21.84375 26.527344 22.117188 26.960938 22.304688 27.289062 C 22.332031 27.339844 22.359375 27.386719 22.382812 27.433594 C 22.246094 28.097656 22.109375 28.761719 21.976562 29.425781 C 21.878906 29.066406 21.738281 28.574219 21.566406 28.042969 C 21.222656 26.976562 20.882812 26.15625 20.882812 26.15625 C 20.882812 26.15625 20.902344 26.386719 20.960938 26.75 C 21.023438 27.113281 21.128906 27.609375 21.300781 28.148438 C 21.472656 28.683594 21.683594 29.15625 21.847656 29.492188 C 21.875 29.550781 21.902344 29.605469 21.929688 29.65625 C 21.90625 29.765625 21.886719 29.875 21.863281 29.984375 C 21.855469 29.949219 21.84375 29.914062 21.835938 29.878906 C 21.757812 29.621094 21.648438 29.273438 21.515625 28.902344 C 21.382812 28.53125 21.246094 28.203125 21.144531 27.96875 C 21.042969 27.734375 20.972656 27.59375 20.972656 27.59375 C 20.972656 27.59375 20.976562 27.757812 21.011719 28.019531 C 21.046875 28.277344 21.117188 28.632812 21.25 29.011719 C 21.386719 29.386719 21.5625 29.710938 21.703125 29.9375 C 21.753906 30.015625 21.796875 30.082031 21.835938 30.136719 C 21.757812 30.539062 21.679688 30.9375 21.605469 31.339844 C 21.597656 31.28125 21.589844 31.222656 21.578125 31.160156 C 21.558594 31.046875 21.539062 30.929688 21.519531 30.804688 C 21.496094 30.683594 21.46875 30.558594 21.445312 30.425781 C 21.394531 30.160156 21.324219 29.886719 21.253906 29.59375 C 21.105469 29.011719 20.929688 28.382812 20.738281 27.730469 C 20.546875 27.078125 20.378906 26.457031 20.242188 25.894531 C 20.207031 25.753906 20.175781 25.617188 20.144531 25.484375 C 20.113281 25.351562 20.09375 25.21875 20.070312 25.09375 C 20.015625 24.84375 19.984375 24.605469 19.953125 24.390625 C 19.914062 24.175781 19.910156 23.980469 19.890625 23.808594 C 19.882812 23.722656 19.871094 23.644531 19.871094 23.570312 C 19.867188 23.496094 19.867188 23.429688 19.863281 23.367188 C 19.855469 23.125 19.851562 22.992188 19.851562 22.992188 C 19.851562 22.992188 19.839844 23.128906 19.820312 23.375 C 19.816406 23.4375 19.808594 23.503906 19.804688 23.578125 C 19.800781 23.65625 19.800781 23.738281 19.800781 23.824219 C 19.800781 24 19.792969 24.203125 19.8125 24.421875 C 19.820312 24.535156 19.828125 24.652344 19.835938 24.773438 C 19.84375 24.894531 19.867188 25.019531 19.878906 25.148438 C 19.910156 25.410156 19.960938 25.6875 20.011719 25.976562 C 20.125 26.558594 20.285156 27.1875 20.472656 27.84375 C 20.664062 28.5 20.859375 29.117188 21.027344 29.683594 C 21.109375 29.96875 21.195312 30.238281 21.257812 30.492188 C 21.292969 30.621094 21.328125 30.742188 21.359375 30.863281 C 21.386719 30.980469 21.414062 31.09375 21.441406 31.203125 C 21.484375 31.375 21.515625 31.53125 21.546875 31.675781 C 21.515625 31.839844 21.488281 32.007812 21.457031 32.171875 C 21.453125 32.191406 21.449219 32.210938 21.449219 32.230469 C 21.4375 32.175781 21.425781 32.121094 21.410156 32.058594 C 21.394531 31.992188 21.378906 31.925781 21.363281 31.851562 C 21.34375 31.78125 21.320312 31.710938 21.296875 31.632812 C 21.253906 31.480469 21.191406 31.324219 21.128906 31.160156 C 20.996094 30.832031 20.835938 30.484375 20.660156 30.128906 C 20.480469 29.773438 20.3125 29.441406 20.171875 29.136719 C 20.105469 28.980469 20.039062 28.835938 19.984375 28.699219 C 19.925781 28.5625 19.882812 28.433594 19.84375 28.3125 C 19.800781 28.195312 19.777344 28.082031 19.75 27.988281 C 19.71875 27.890625 19.703125 27.808594 19.691406 27.738281 C 19.664062 27.601562 19.652344 27.523438 19.652344 27.523438 C 19.652344 27.523438 19.652344 27.601562 19.648438 27.746094 C 19.648438 27.785156 19.648438 27.824219 19.648438 27.867188 C 19.652344 27.914062 19.65625 27.960938 19.660156 28.011719 C 19.675781 28.113281 19.679688 28.234375 19.710938 28.359375 C 19.722656 28.425781 19.734375 28.492188 19.75 28.5625 C 19.765625 28.632812 19.785156 28.703125 19.804688 28.777344 C 19.84375 28.929688 19.898438 29.082031 19.957031 29.246094 C 20.078125 29.570312 20.234375 29.921875 20.414062 30.273438 C 20.589844 30.628906 20.761719 30.964844 20.917969 31.269531 C 20.988281 31.425781 21.0625 31.570312 21.117188 31.714844 C 21.148438 31.785156 21.179688 31.851562 21.207031 31.917969 C 21.230469 31.984375 21.253906 32.046875 21.277344 32.109375 C 21.328125 32.230469 21.355469 32.34375 21.386719 32.445312 C 21.394531 32.460938 21.398438 32.472656 21.402344 32.488281 C 21.398438 32.496094 21.398438 32.503906 21.398438 32.515625 C 21.375 32.433594 21.347656 32.347656 21.320312 32.261719 C 21.238281 32.03125 21.132812 31.785156 21.011719 31.535156 C 20.769531 31.039062 20.53125 30.621094 20.382812 30.304688 C 20.308594 30.148438 20.25 30.019531 20.214844 29.929688 C 20.179688 29.835938 20.15625 29.789062 20.15625 29.789062 C 20.15625 29.789062 20.164062 29.84375 20.175781 29.941406 C 20.183594 30.042969 20.210938 30.1875 20.253906 30.363281 C 20.339844 30.714844 20.523438 31.1875 20.761719 31.675781 C 20.882812 31.917969 20.996094 32.152344 21.101562 32.363281 C 21.1875 32.554688 21.269531 32.730469 21.332031 32.886719 C 21.300781 33.054688 21.269531 33.222656 21.242188 33.390625 C 21.234375 33.371094 21.230469 33.351562 21.226562 33.335938 C 21.144531 33.074219 21.015625 32.804688 20.851562 32.546875 C 20.6875 32.285156 20.515625 32.0625 20.355469 31.863281 C 20.195312 31.664062 20.054688 31.488281 19.9375 31.339844 C 19.820312 31.1875 19.734375 31.066406 19.671875 30.976562 C 19.613281 30.890625 19.582031 30.839844 19.582031 30.839844 C 19.582031 30.839844 19.597656 30.898438 19.636719 31 C 19.671875 31.105469 19.734375 31.25 19.824219 31.425781 C 20 31.777344 20.308594 32.222656 20.621094 32.710938 C 20.773438 32.957031 20.902344 33.199219 21.003906 33.429688 C 21.066406 33.582031 21.117188 33.730469 21.15625 33.867188 C 21.113281 34.117188 21.066406 34.371094 21.03125 34.621094 C 21.023438 34.660156 21.019531 34.699219 21.011719 34.738281 C 20.984375 34.539062 20.941406 34.332031 20.878906 34.125 C 20.707031 33.550781 20.425781 33.085938 20.195312 32.789062 C 20.078125 32.640625 19.976562 32.527344 19.898438 32.453125 C 19.824219 32.378906 19.785156 32.339844 19.785156 32.339844 C 19.785156 32.339844 19.8125 32.390625 19.867188 32.484375 C 19.894531 32.53125 19.925781 32.585938 19.960938 32.652344 C 19.996094 32.71875 20.039062 32.789062 20.082031 32.875 C 20.121094 32.960938 20.167969 33.050781 20.210938 33.152344 C 20.261719 33.25 20.304688 33.359375 20.351562 33.46875 C 20.441406 33.699219 20.53125 33.949219 20.613281 34.222656 C 20.691406 34.492188 20.753906 34.753906 20.800781 34.996094 C 20.835938 35.195312 20.867188 35.378906 20.886719 35.546875 C 20.804688 36.050781 20.726562 36.550781 20.648438 37.050781 C 20.640625 37.089844 20.636719 37.128906 20.628906 37.167969 C 20.640625 36.917969 20.632812 36.621094 20.609375 36.292969 C 20.578125 35.960938 20.523438 35.597656 20.429688 35.226562 C 20.25 34.480469 19.960938 33.855469 19.71875 33.429688 C 19.59375 33.21875 19.488281 33.054688 19.410156 32.945312 C 19.332031 32.835938 19.289062 32.773438 19.289062 32.773438 C 19.289062 32.773438 19.320312 32.84375 19.375 32.96875 C 19.402344 33.03125 19.4375 33.109375 19.472656 33.199219 C 19.507812 33.289062 19.554688 33.390625 19.59375 33.503906 C 19.683594 33.730469 19.78125 34.003906 19.878906 34.308594 C 19.972656 34.613281 20.074219 34.953125 20.160156 35.3125 C 20.246094 35.671875 20.316406 36.019531 20.371094 36.339844 C 20.421875 36.660156 20.464844 36.953125 20.488281 37.199219 C 20.503906 37.324219 20.507812 37.433594 20.515625 37.535156 C 20.527344 37.628906 20.53125 37.710938 20.535156 37.777344 C 20.515625 37.90625 20.492188 38.039062 20.476562 38.167969 C 20.472656 38.105469 20.464844 38.042969 20.460938 37.976562 C 20.429688 37.667969 20.375 37.300781 20.269531 36.90625 C 20.167969 36.511719 20.019531 36.089844 19.828125 35.664062 C 19.445312 34.820312 18.992188 34.132812 18.660156 33.648438 C 18.324219 33.164062 18.109375 32.878906 18.109375 32.878906 C 18.109375 32.878906 18.269531 33.207031 18.546875 33.734375 C 18.820312 34.261719 19.210938 34.980469 19.578125 35.804688 C 19.949219 36.628906 20.199219 37.414062 20.320312 38.007812 C 20.367188 38.214844 20.398438 38.398438 20.421875 38.550781 C 20.414062 38.621094 20.402344 38.6875 20.394531 38.757812 C 20.304688 38.347656 20.128906 37.878906 19.882812 37.394531 C 19.753906 37.140625 19.605469 36.886719 19.4375 36.628906 C 19.273438 36.375 19.089844 36.117188 18.898438 35.863281 C 18.515625 35.351562 18.140625 34.886719 17.824219 34.449219 C 17.503906 34.015625 17.242188 33.609375 17.058594 33.25 C 16.871094 32.894531 16.746094 32.589844 16.679688 32.375 C 16.640625 32.269531 16.621094 32.183594 16.601562 32.128906 C 16.585938 32.070312 16.578125 32.042969 16.578125 32.042969 C 16.578125 32.042969 16.582031 32.074219 16.589844 32.132812 C 16.601562 32.191406 16.609375 32.28125 16.636719 32.394531 C 16.683594 32.621094 16.773438 32.945312 16.9375 33.328125 C 17.097656 33.714844 17.339844 34.152344 17.640625 34.613281 C 17.945312 35.074219 18.3125 35.558594 18.691406 36.0625 C 19.070312 36.566406 19.414062 37.058594 19.6875 37.53125 C 19.953125 38.007812 20.15625 38.460938 20.269531 38.863281 C 20.296875 38.957031 20.320312 39.046875 20.339844 39.136719 C 20.328125 39.238281 20.3125 39.34375 20.296875 39.445312 C 20.292969 39.480469 20.289062 39.515625 20.285156 39.546875 C 20.273438 39.324219 20.230469 39.054688 20.136719 38.777344 C 20.015625 38.421875 19.832031 38.136719 19.683594 37.953125 C 19.609375 37.859375 19.542969 37.789062 19.496094 37.746094 C 19.449219 37.699219 19.421875 37.675781 19.421875 37.675781 C 19.421875 37.675781 19.476562 37.8125 19.566406 38.035156 C 19.652344 38.253906 19.757812 38.550781 19.871094 38.882812 C 19.984375 39.210938 20.082031 39.515625 20.144531 39.746094 C 20.175781 39.859375 20.199219 39.949219 20.21875 40.015625 C 20.210938 40.074219 20.203125 40.132812 20.195312 40.191406 C 20.164062 40.128906 20.132812 40.066406 20.09375 39.996094 C 19.878906 39.585938 19.519531 39.0625 19.152344 38.5 C 18.785156 37.9375 18.515625 37.40625 18.394531 36.992188 C 18.332031 36.789062 18.296875 36.617188 18.28125 36.5 C 18.265625 36.378906 18.257812 36.3125 18.257812 36.3125 C 18.257812 36.3125 18.253906 36.328125 18.25 36.363281 C 18.246094 36.394531 18.238281 36.441406 18.238281 36.503906 C 18.226562 36.628906 18.226562 36.8125 18.257812 37.035156 C 18.3125 37.488281 18.542969 38.09375 18.921875 38.671875 C 19.300781 39.253906 19.710938 39.71875 19.976562 40.078125 C 20.050781 40.175781 20.117188 40.265625 20.175781 40.34375 C 20.117188 40.761719 20.058594 41.175781 20 41.585938 C 19.972656 41.546875 19.941406 41.507812 19.910156 41.464844 C 19.90625 41.460938 19.898438 41.457031 19.894531 41.453125 C 19.871094 41.359375 19.84375 41.265625 19.816406 41.171875 C 19.804688 41.128906 19.796875 41.082031 19.78125 41.027344 C 19.742188 40.886719 19.683594 40.714844 19.597656 40.527344 C 19.5625 40.445312 19.519531 40.359375 19.476562 40.269531 C 19.453125 40.222656 19.433594 40.175781 19.414062 40.128906 C 19.132812 39.515625 18.792969 38.921875 18.445312 38.328125 C 18.097656 37.738281 17.738281 37.144531 17.425781 36.527344 C 17.113281 35.914062 16.851562 35.269531 16.640625 34.597656 Z M 16.847656 28.257812 C 16.847656 28.261719 16.84375 28.265625 16.84375 28.265625 C 16.84375 28.257812 16.84375 28.253906 16.84375 28.25 C 16.847656 28.25 16.847656 28.25 16.847656 28.257812 Z M 23.480469 22.714844 C 23.472656 22.582031 23.457031 22.410156 23.421875 22.214844 C 23.375 21.953125 23.289062 21.652344 23.175781 21.328125 C 23.113281 21.15625 23.039062 20.976562 22.964844 20.789062 C 23.074219 20.976562 23.183594 21.148438 23.28125 21.308594 C 23.40625 21.511719 23.507812 21.703125 23.574219 21.871094 C 23.605469 21.945312 23.628906 22.011719 23.644531 22.074219 C 23.589844 22.289062 23.535156 22.5 23.480469 22.714844 Z M 22.152344 15.152344 C 22.199219 15.027344 22.25 14.902344 22.296875 14.777344 C 22.394531 14.523438 22.480469 14.269531 22.5625 14.015625 C 22.710938 13.554688 22.84375 13.09375 22.976562 12.640625 C 22.945312 13.058594 22.957031 13.429688 22.980469 13.703125 C 23.003906 13.996094 23.039062 14.175781 23.039062 14.175781 C 23.039062 14.175781 23.074219 13.992188 23.121094 13.699219 C 23.167969 13.402344 23.226562 13 23.265625 12.550781 C 23.300781 12.15625 23.316406 11.789062 23.328125 11.5 C 23.433594 11.171875 23.554688 10.851562 23.683594 10.542969 C 23.679688 10.5625 23.675781 10.582031 23.671875 10.601562 C 23.582031 11 23.484375 11.558594 23.441406 12.171875 C 23.398438 12.785156 23.417969 13.332031 23.453125 13.726562 C 23.484375 14.117188 23.523438 14.355469 23.523438 14.355469 C 23.523438 14.355469 23.554688 14.109375 23.59375 13.714844 C 23.632812 13.320312 23.683594 12.777344 23.726562 12.175781 C 23.769531 11.574219 23.792969 11.019531 23.8125 10.617188 C 23.820312 10.460938 23.824219 10.324219 23.828125 10.21875 C 23.910156 10.046875 23.996094 9.878906 24.085938 9.714844 C 24.414062 9.132812 24.816406 8.597656 25.234375 8.078125 C 25.148438 8.277344 25.058594 8.515625 24.984375 8.792969 C 24.855469 9.28125 24.769531 9.878906 24.753906 10.550781 C 24.734375 11.21875 24.773438 11.953125 24.824219 12.722656 C 24.933594 14.25 24.945312 15.648438 24.914062 16.667969 C 24.90625 17.085938 24.890625 17.4375 24.875 17.707031 C 24.867188 17.730469 24.859375 17.753906 24.855469 17.777344 C 24.824219 17.867188 24.796875 17.960938 24.769531 18.054688 C 24.777344 17.988281 24.785156 17.917969 24.792969 17.847656 C 24.847656 17.273438 24.882812 16.640625 24.878906 15.980469 C 24.875 14.660156 24.710938 13.488281 24.546875 12.65625 C 24.511719 12.449219 24.464844 12.265625 24.429688 12.101562 C 24.394531 11.9375 24.359375 11.796875 24.328125 11.683594 C 24.269531 11.457031 24.234375 11.332031 24.234375 11.332031 C 24.234375 11.332031 24.253906 11.464844 24.285156 11.699219 C 24.304688 11.816406 24.324219 11.960938 24.34375 12.128906 C 24.363281 12.296875 24.390625 12.484375 24.410156 12.699219 C 24.433594 12.910156 24.460938 13.140625 24.476562 13.390625 C 24.503906 13.636719 24.519531 13.902344 24.539062 14.183594 C 24.570312 14.746094 24.59375 15.363281 24.597656 16.015625 C 24.597656 16.664062 24.578125 17.289062 24.550781 17.855469 C 24.53125 18.140625 24.519531 18.410156 24.496094 18.660156 C 24.488281 18.789062 24.476562 18.910156 24.46875 19.027344 C 24.464844 19.054688 24.460938 19.078125 24.460938 19.101562 C 24.359375 19.445312 24.261719 19.789062 24.164062 20.136719 C 24.175781 20.03125 24.1875 19.914062 24.195312 19.78125 C 24.195312 19.753906 24.199219 19.722656 24.199219 19.691406 C 24.214844 19.640625 24.226562 19.585938 24.242188 19.519531 C 24.261719 19.4375 24.28125 19.34375 24.296875 19.238281 C 24.335938 19.03125 24.367188 18.78125 24.386719 18.507812 C 24.40625 18.230469 24.410156 17.925781 24.398438 17.609375 C 24.367188 16.980469 24.28125 16.425781 24.210938 16.03125 C 24.136719 15.632812 24.082031 15.394531 24.082031 15.394531 C 24.082031 15.394531 24.066406 15.648438 24.070312 16.054688 C 24.070312 16.449219 24.085938 16.984375 24.109375 17.578125 C 24.105469 17.550781 24.105469 17.523438 24.101562 17.496094 C 23.96875 16.617188 23.730469 15.855469 23.527344 15.328125 C 23.421875 15.0625 23.332031 14.855469 23.265625 14.710938 C 23.199219 14.570312 23.160156 14.492188 23.160156 14.492188 C 23.160156 14.492188 23.183594 14.578125 23.222656 14.730469 C 23.269531 14.886719 23.324219 15.109375 23.394531 15.386719 C 23.53125 15.9375 23.691406 16.703125 23.820312 17.558594 C 23.886719 17.988281 23.933594 18.402344 23.976562 18.78125 C 24.011719 19.15625 24.039062 19.5 24.050781 19.789062 C 24.0625 19.933594 24.066406 20.066406 24.070312 20.179688 C 24.074219 20.285156 24.078125 20.375 24.078125 20.449219 C 23.953125 20.90625 23.832031 21.363281 23.710938 21.824219 C 23.671875 21.632812 23.597656 21.414062 23.488281 21.1875 C 23.382812 20.957031 23.25 20.722656 23.117188 20.484375 C 22.847656 20 22.636719 19.554688 22.492188 19.230469 C 22.347656 18.902344 22.265625 18.695312 22.265625 18.695312 C 22.265625 18.695312 22.269531 18.753906 22.285156 18.855469 C 22.296875 18.957031 22.320312 19.105469 22.359375 19.285156 C 22.367188 19.320312 22.378906 19.359375 22.386719 19.394531 C 22.265625 19.058594 22.179688 18.753906 22.136719 18.492188 C 22.097656 18.253906 22.082031 18.054688 22.082031 17.917969 C 22.082031 17.851562 22.085938 17.800781 22.085938 17.761719 C 22.085938 17.726562 22.085938 17.707031 22.085938 17.707031 C 22.085938 17.707031 22.082031 17.726562 22.074219 17.761719 C 22.066406 17.796875 22.050781 17.851562 22.039062 17.917969 C 22.011719 18.058594 21.988281 18.261719 21.996094 18.519531 C 22.003906 18.773438 22.046875 19.078125 22.136719 19.410156 C 22.222656 19.738281 22.351562 20.089844 22.503906 20.445312 C 22.660156 20.800781 22.820312 21.128906 22.957031 21.433594 C 23.09375 21.738281 23.207031 22.015625 23.285156 22.257812 C 23.363281 22.5 23.414062 22.703125 23.441406 22.84375 C 23.441406 22.851562 23.441406 22.855469 23.445312 22.863281 C 23.265625 23.566406 23.09375 24.277344 22.929688 24.988281 C 22.925781 24.980469 22.925781 24.972656 22.925781 24.960938 C 22.933594 24.769531 22.933594 24.539062 22.910156 24.28125 C 22.871094 23.855469 22.757812 23.347656 22.535156 22.832031 C 22.320312 22.3125 22.015625 21.792969 21.777344 21.222656 C 21.296875 20.085938 21.125 18.972656 21.085938 18.175781 C 21.070312 17.890625 21.070312 17.644531 21.078125 17.445312 C 21.347656 16.914062 21.613281 16.378906 21.859375 15.835938 C 21.839844 15.894531 21.820312 15.960938 21.800781 16.039062 C 21.777344 16.140625 21.746094 16.253906 21.722656 16.378906 C 21.664062 16.632812 21.613281 16.933594 21.566406 17.269531 C 21.527344 17.609375 21.503906 17.980469 21.5 18.367188 C 21.5 19.144531 21.601562 19.835938 21.707031 20.320312 C 21.761719 20.5625 21.8125 20.753906 21.851562 20.886719 C 21.890625 21.019531 21.910156 21.09375 21.910156 21.09375 C 21.910156 21.09375 21.90625 21.015625 21.894531 20.875 C 21.878906 20.738281 21.863281 20.535156 21.847656 20.285156 C 21.8125 19.789062 21.785156 19.105469 21.785156 18.347656 C 21.789062 17.96875 21.796875 17.609375 21.808594 17.277344 C 21.824219 16.945312 21.839844 16.644531 21.863281 16.394531 C 21.871094 16.265625 21.882812 16.152344 21.890625 16.050781 C 21.898438 15.949219 21.910156 15.863281 21.917969 15.792969 C 21.921875 15.746094 21.925781 15.710938 21.925781 15.679688 C 21.949219 15.628906 21.972656 15.578125 21.996094 15.527344 Z M 31.074219 5.339844 C 31.09375 5.316406 31.113281 5.292969 31.132812 5.269531 L 31.25 5.144531 C 31.441406 4.9375 31.640625 4.710938 31.800781 4.421875 L 31.859375 4.3125 L 31.910156 4.195312 C 31.945312 4.117188 31.96875 4.03125 31.992188 3.949219 L 32.007812 3.882812 L 32.015625 3.828125 L 32.035156 3.714844 C 32.046875 3.636719 32.058594 3.5625 32.0625 3.484375 C 32.09375 3.175781 32.074219 2.851562 31.992188 2.539062 C 31.910156 2.230469 31.765625 1.933594 31.574219 1.679688 C 31.386719 1.425781 31.15625 1.214844 30.914062 1.035156 C 30.421875 0.683594 29.878906 0.460938 29.332031 0.296875 C 29.261719 0.277344 29.214844 0.265625 29.082031 0.230469 C 28.972656 0.203125 28.859375 0.179688 28.746094 0.15625 C 28.527344 0.113281 28.308594 0.078125 28.109375 0.0585938 L 27.652344 0.0117188 L 27.574219 0.0078125 L 27.535156 0.00390625 L 27.515625 0 L 27.503906 0 C 27.503906 0.0078125 27.503906 0.0117188 27.496094 0.0195312 C 27.480469 0.0234375 27.472656 0.03125 27.453125 0.0351562 L 27.402344 0.0429688 L 27.378906 0.046875 C 27.371094 0.046875 27.367188 0.0507812 27.347656 0.0507812 L 27.25 0.0546875 L 27.199219 0.0546875 C 27.183594 0.0546875 27.167969 0.0585938 27.140625 0.0546875 L 27.617188 0.496094 L 27.8125 0.679688 L 27.957031 0.824219 C 27.980469 0.847656 28.007812 0.871094 28.027344 0.894531 L 28.0625 0.953125 L 28.128906 1.0625 L 28.183594 1.226562 L 28.1875 1.234375 L 28.191406 1.25 L 28.191406 1.253906 L 28.195312 1.269531 C 28.226562 1.410156 28.242188 1.558594 28.238281 1.707031 C 28.226562 2.003906 28.136719 2.316406 28.015625 2.621094 C 27.890625 2.929688 27.730469 3.242188 27.578125 3.558594 C 27.421875 3.871094 27.265625 4.183594 27.105469 4.492188 C 26.824219 5.023438 26.527344 5.539062 26.1875 6.019531 C 25.84375 6.503906 25.464844 6.964844 25.085938 7.4375 C 24.707031 7.90625 24.324219 8.386719 23.984375 8.902344 C 23.640625 9.417969 23.355469 9.976562 23.128906 10.546875 C 22.671875 11.691406 22.402344 12.871094 22.03125 13.992188 C 21.660156 15.113281 21.140625 16.179688 20.597656 17.238281 C 20.054688 18.296875 19.496094 19.355469 19.066406 20.476562 C 18.847656 21.035156 18.667969 21.613281 18.542969 22.203125 C 18.414062 22.789062 18.339844 23.390625 18.3125 23.988281 C 18.253906 25.1875 18.332031 26.375 18.34375 27.558594 C 18.363281 28.667969 18.300781 29.785156 18.03125 30.859375 C 17.792969 30.242188 17.609375 29.601562 17.492188 28.945312 C 17.425781 28.574219 17.378906 28.238281 17.351562 27.796875 C 17.324219 27.382812 17.332031 26.921875 17.347656 26.480469 C 17.339844 26.421875 17.339844 26.355469 17.335938 26.289062 C 17.335938 26.277344 17.335938 26.253906 17.332031 26.246094 L 17.296875 26.304688 L 17.21875 26.425781 C 17.117188 26.585938 17.023438 26.742188 16.929688 26.90625 C 16.742188 27.226562 16.566406 27.5625 16.410156 27.914062 C 16.390625 27.957031 16.371094 28.003906 16.351562 28.046875 L 16.300781 28.167969 L 16.207031 28.410156 C 16.144531 28.574219 16.085938 28.734375 16.027344 28.902344 C 15.917969 29.230469 15.820312 29.566406 15.730469 29.902344 C 15.632812 30.242188 15.589844 30.597656 15.582031 30.949219 C 15.574219 31.300781 15.601562 31.648438 15.632812 32 C 15.703125 32.695312 15.828125 33.390625 16.015625 34.066406 C 16.199219 34.746094 16.441406 35.410156 16.738281 36.050781 C 17.027344 36.679688 17.378906 37.277344 17.746094 37.863281 C 17.660156 37.800781 17.574219 37.742188 17.484375 37.683594 C 17.152344 37.484375 16.765625 37.335938 16.339844 37.304688 C 16.125 37.289062 15.894531 37.308594 15.671875 37.402344 C 15.5625 37.449219 15.453125 37.519531 15.367188 37.597656 C 15.28125 37.675781 15.210938 37.765625 15.152344 37.855469 C 14.929688 38.203125 14.832031 38.59375 14.832031 38.957031 C 14.832031 39.324219 14.925781 39.664062 15.074219 39.949219 C 15.148438 40.089844 15.238281 40.214844 15.335938 40.328125 C 15.4375 40.4375 15.542969 40.527344 15.648438 40.605469 C 16.082031 40.910156 16.511719 40.976562 16.789062 40.972656 C 16.929688 40.972656 17.039062 40.953125 17.109375 40.941406 C 17.179688 40.925781 17.21875 40.917969 17.21875 40.917969 C 17.21875 40.917969 17.179688 40.917969 17.105469 40.917969 C 17.03125 40.914062 16.921875 40.90625 16.789062 40.882812 C 16.523438 40.832031 16.140625 40.691406 15.808594 40.367188 C 15.648438 40.203125 15.503906 40 15.414062 39.753906 C 15.320312 39.511719 15.285156 39.230469 15.316406 38.945312 C 15.34375 38.664062 15.445312 38.371094 15.621094 38.140625 C 15.660156 38.085938 15.707031 38.039062 15.753906 38 C 15.800781 37.964844 15.851562 37.9375 15.910156 37.917969 C 16.027344 37.878906 16.175781 37.867188 16.332031 37.878906 C 16.648438 37.910156 16.960938 38.023438 17.242188 38.179688 C 17.519531 38.335938 17.773438 38.535156 17.992188 38.753906 C 18.433594 39.1875 18.769531 39.675781 19.058594 40.074219 C 19.078125 40.105469 19.097656 40.128906 19.117188 40.15625 C 19.289062 40.488281 19.441406 40.828125 19.570312 41.175781 C 19.554688 41.167969 19.539062 41.15625 19.523438 41.148438 C 19.21875 40.96875 18.820312 40.871094 18.414062 40.9375 C 18.210938 40.972656 18.015625 41.042969 17.851562 41.148438 C 17.683594 41.253906 17.542969 41.394531 17.441406 41.539062 C 17.238281 41.832031 17.171875 42.148438 17.171875 42.402344 C 17.175781 42.660156 17.246094 42.855469 17.308594 42.976562 C 17.335938 43.039062 17.367188 43.082031 17.386719 43.109375 C 17.410156 43.140625 17.417969 43.15625 17.417969 43.15625 C 17.417969 43.15625 17.414062 43.136719 17.410156 43.097656 C 17.402344 43.0625 17.394531 43.011719 17.390625 42.945312 C 17.382812 42.8125 17.390625 42.625 17.457031 42.421875 C 17.523438 42.222656 17.644531 42.003906 17.828125 41.832031 C 18.003906 41.660156 18.242188 41.546875 18.519531 41.503906 C 18.792969 41.464844 19.074219 41.496094 19.316406 41.585938 C 19.5 41.652344 19.660156 41.753906 19.789062 41.871094 C 19.792969 41.886719 19.796875 41.898438 19.800781 41.910156 C 19.828125 42.003906 19.855469 42.082031 19.875 42.15625 C 19.886719 42.199219 19.898438 42.242188 19.914062 42.277344 C 19.742188 43.652344 19.574219 44.996094 19.414062 46.292969 L 19.402344 46.402344 C 19.394531 46.449219 19.382812 46.496094 19.402344 46.542969 L 19.457031 46.761719 C 19.488281 46.882812 19.523438 47.007812 19.550781 47.132812 L 19.636719 47.507812 L 19.71875 47.882812 C 19.820312 48.386719 19.910156 48.894531 19.988281 49.40625 C 20.066406 49.890625 20.132812 50.382812 20.191406 50.875 C 20.191406 50.976562 20.1875 51.074219 20.1875 51.175781 L 20.199219 51.832031 C 20.199219 51.941406 20.207031 52.050781 20.210938 52.160156 C 20.214844 52.269531 20.21875 52.382812 20.226562 52.5 L 20.898438 52.449219 C 20.855469 51.949219 20.800781 51.457031 20.742188 50.964844 L 20.75 50.476562 L 20.753906 50.144531 L 20.765625 49.808594 L 20.792969 49.144531 C 20.800781 48.925781 20.8125 48.703125 20.828125 48.480469 L 20.910156 47.152344 C 21.050781 45.378906 21.230469 43.605469 21.457031 41.839844 L 21.503906 41.472656 C 21.53125 41.453125 21.5625 41.40625 21.605469 41.335938 C 21.6875 41.179688 21.828125 40.917969 22.101562 40.5625 C 22.121094 40.539062 22.140625 40.515625 22.160156 40.492188 C 22.320312 40.371094 22.496094 40.253906 22.695312 40.164062 C 22.796875 40.117188 22.902344 40.078125 23.015625 40.046875 C 23.128906 40.019531 23.246094 39.996094 23.371094 39.980469 C 23.621094 39.953125 23.890625 39.953125 24.179688 39.957031 C 24.46875 39.960938 24.785156 39.96875 25.109375 39.941406 C 25.753906 39.894531 26.375 39.734375 26.878906 39.453125 C 27.128906 39.316406 27.351562 39.152344 27.535156 38.972656 C 27.71875 38.796875 27.863281 38.605469 27.976562 38.421875 C 28.203125 38.054688 28.289062 37.710938 28.316406 37.476562 C 28.328125 37.359375 28.332031 37.269531 28.328125 37.207031 C 28.328125 37.144531 28.324219 37.113281 28.324219 37.113281 C 28.324219 37.113281 28.320312 37.144531 28.304688 37.207031 C 28.292969 37.265625 28.265625 37.355469 28.226562 37.464844 C 28.148438 37.679688 28 37.976562 27.734375 38.269531 C 27.472656 38.5625 27.105469 38.839844 26.640625 39.03125 C 26.179688 39.222656 25.628906 39.328125 25.039062 39.371094 C 24.453125 39.414062 23.839844 39.375 23.265625 39.507812 C 23.246094 39.511719 23.226562 39.515625 23.207031 39.523438 C 23.464844 39.324219 23.730469 39.128906 23.996094 38.929688 C 24.347656 38.667969 24.699219 38.394531 25.035156 38.078125 C 25.117188 37.996094 25.203125 37.914062 25.28125 37.832031 L 25.507812 37.585938 C 25.585938 37.5 25.660156 37.417969 25.730469 37.328125 L 25.949219 37.070312 C 26.515625 36.371094 27.011719 35.617188 27.453125 34.832031 C 27.890625 34.042969 28.273438 33.222656 28.585938 32.371094 C 28.664062 32.15625 28.742188 31.945312 28.808594 31.726562 L 28.914062 31.402344 L 29.003906 31.074219 C 29.132812 30.636719 29.226562 30.179688 29.308594 29.75 C 29.40625 29.320312 29.5 28.886719 29.597656 28.457031 C 29.691406 28.019531 29.78125 27.585938 29.875 27.152344 C 30.058594 26.28125 30.234375 25.40625 30.398438 24.527344 L 30.519531 23.867188 L 30.605469 23.363281 C 30.644531 23.148438 30.679688 22.929688 30.710938 22.71875 L 30.902344 21.441406 L 31.078125 20.261719 L 30.035156 21.746094 C 29.867188 22.003906 29.773438 22.070312 29.660156 22.203125 L 29.492188 22.382812 C 29.433594 22.441406 29.382812 22.476562 29.328125 22.523438 L 29.167969 22.660156 L 29.085938 22.726562 L 29.046875 22.761719 L 29.015625 22.785156 L 28.851562 22.910156 L 28.722656 23.003906 L 28.71875 23.011719 L 28.691406 23.03125 L 28.683594 23.039062 C 28.679688 23.042969 28.679688 23.042969 28.679688 23.039062 L 28.683594 23.023438 L 28.691406 22.988281 L 28.933594 22.226562 C 29.101562 21.6875 29.273438 21.152344 29.433594 20.609375 C 29.761719 19.558594 30.0625 18.496094 30.355469 17.429688 C 30.640625 16.359375 30.910156 15.285156 31.140625 14.199219 C 31.363281 13.113281 31.570312 12.023438 31.714844 10.917969 L 31.773438 10.503906 C 31.792969 10.367188 31.804688 10.226562 31.820312 10.089844 L 31.90625 9.257812 L 31.96875 8.425781 C 31.976562 8.285156 31.988281 8.148438 31.996094 8.007812 L 32.011719 7.589844 C 32.019531 7.3125 32.035156 7.03125 32.035156 6.753906 L 32.03125 5.542969 L 32.03125 5.171875 C 32.03125 5.140625 32.03125 5.109375 32.027344 5.082031 L 31.945312 5.117188 L 31.773438 5.1875 L 31.09375 5.46875 L 30.960938 5.523438 C 30.96875 5.515625 30.976562 5.503906 30.980469 5.480469 C 31.003906 5.429688 31.039062 5.382812 31.074219 5.339844 " fill-opacity="1" fill-rule="nonzero"/></g></svg>